<svg width="138" height="95" viewBox="0 0 138 95" fill="none" xmlns="http://www.w3.org/2000/svg">
<g opacity="0.6">
<path d="M28.6508 40.2116C6.32496 40.2116 2.51323 58.9206 2.51323 68.2751C4.69136 69.0088 10.2456 69.0455 15.0375 63.3228V92.4868H42.2641V63.3228C43.7162 64.9735 48.254 68.2751 54.7884 68.2751C54.7884 59.4709 52.0657 40.2116 28.6508 40.2116Z" stroke="#003075" stroke-width="5" stroke-linecap="round"/>
<path d="M97.0106 40.2116C74.6847 40.2116 70.873 58.9206 70.873 68.2751C73.0511 69.0088 78.6054 69.0455 83.3973 63.3228V92.4868H110.624V63.3228C112.076 64.9735 116.614 68.2751 123.148 68.2751C123.148 59.4709 120.425 40.2116 97.0106 40.2116Z" stroke="#003075" stroke-width="5" stroke-linecap="round"/>
<path d="M28.6508 77.4074V92.4868" stroke="#003075" stroke-width="5.02645" stroke-linecap="round"/>
<path d="M29.1534 2.51323C37.4153 2.51323 44.2328 9.42232 44.2328 18.0952C44.2328 26.7682 37.4153 33.6772 29.1534 33.6772C20.8916 33.6772 14.0741 26.7682 14.0741 18.0952C14.0741 9.42232 20.8916 2.51323 29.1534 2.51323Z" stroke="#003075" stroke-width="5"/>
<circle cx="98.0159" cy="18.0952" r="15.5952" stroke="#003075" stroke-width="5"/>
<path d="M110.079 6.20784C113.783 2.4489 120.635 0.40847 122.857 9.42992C125.635 20.7067 127.859 20.7072 131.19 22.8541C127.672 23.5701 119.302 23.2837 113.968 16.4103" stroke="#003075" stroke-width="5.02645" stroke-linecap="round"/>
</g>
</svg>
