<svg width="7" height="33" viewBox="0 0 7 33" fill="none" xmlns="http://www.w3.org/2000/svg">
<path d="M3.5 26.6973C4.32084 26.6973 5.03744 26.9764 5.61914 27.5352C6.20167 28.0947 6.5 28.7924 6.5 29.5986C6.49999 30.4048 6.20166 31.1026 5.61914 31.6621C5.03745 32.2208 4.32082 32.5 3.5 32.5C2.67918 32.5 1.96255 32.2208 1.38086 31.6621C0.798337 31.1026 0.50001 30.4048 0.5 29.5986C0.5 28.7924 0.798333 28.0947 1.38086 27.5352C1.96256 26.9764 2.67916 26.6973 3.5 26.6973ZM5.81836 0.5V9.74512L5.81738 9.75781L5.13574 23.293L5.11133 23.7676H1.88867L1.86426 23.293L1.18262 9.75781L1.18164 9.74512V0.5H5.81836Z" fill="#A77943" stroke="#A77943"/>
</svg>
