<svg width="37" height="37" viewBox="0 0 37 37" fill="none" xmlns="http://www.w3.org/2000/svg">
<g clip-path="url(#clip0_188_873)">
<mask id="mask0_188_873" style="mask-type:luminance" maskUnits="userSpaceOnUse" x="0" y="0" width="37" height="37">
<path d="M0 6.16667C0 4.53116 0.649701 2.96265 1.80617 1.80617C2.96265 0.649701 4.53116 0 6.16667 0L30.8333 0C32.4688 0 34.0373 0.649701 35.1938 1.80617C36.3503 2.96265 37 4.53116 37 6.16667V30.8333C37 32.4688 36.3503 34.0373 35.1938 35.1938C34.0373 36.3503 32.4688 37 30.8333 37H6.16667C4.53116 37 2.96265 36.3503 1.80617 35.1938C0.649701 34.0373 0 32.4688 0 30.8333V6.16667Z" fill="white"/>
</mask>
<g mask="url(#mask0_188_873)">
<path d="M3.56125 0H33.4388C33.9064 0 34.3695 0.0921144 34.8016 0.271084C35.2337 0.450054 35.6262 0.712373 35.9569 1.04307C36.2876 1.37376 36.5499 1.76635 36.7289 2.19842C36.9079 2.63049 37 3.09358 37 3.56125V33.4388C37 33.9064 36.9079 34.3695 36.7289 34.8016C36.5499 35.2337 36.2876 35.6262 35.9569 35.9569C35.6262 36.2876 35.2337 36.5499 34.8016 36.7289C34.3695 36.9079 33.9064 37 33.4388 37H25.53V21.7683H30.0779L30.2783 19.3942L30.6637 15.6325H25.9154V13.2583C25.9154 12.0712 26.7171 11.8708 27.1025 11.8708H30.6637V6.53667H25.9154C20.5812 6.53667 19.3942 10.4833 19.3942 12.8575V15.6325H16.4187V21.7683H19.5946V37H3.54583C2.604 36.9959 1.70214 36.6189 1.03761 35.9515C0.373076 35.2841 -8.82503e-06 34.3806 1.56564e-10 33.4388L1.56564e-10 3.56125C1.56564e-10 2.61675 0.375202 1.71093 1.04307 1.04307C1.71093 0.375202 2.61675 0 3.56125 0Z" fill="#FFFFFE"/>
</g>
</g>
<defs>
<clipPath id="clip0_188_873">
<rect width="37" height="37" fill="white"/>
</clipPath>
</defs>
</svg>
