<svg width="37" height="37" viewBox="0 0 37 37" fill="none" xmlns="http://www.w3.org/2000/svg">
<g clip-path="url(#clip0_188_866)">
<mask id="mask0_188_866" style="mask-type:luminance" maskUnits="userSpaceOnUse" x="0" y="0" width="37" height="37">
<path d="M0 6.16667C0 4.53116 0.649701 2.96265 1.80617 1.80617C2.96265 0.649701 4.53116 0 6.16667 0L30.8333 0C32.4688 0 34.0373 0.649701 35.1938 1.80617C36.3503 2.96265 37 4.53116 37 6.16667V30.8333C37 32.4688 36.3503 34.0373 35.1938 35.1938C34.0373 36.3503 32.4688 37 30.8333 37H6.16667C4.53116 37 2.96265 36.3503 1.80617 35.1938C0.649701 34.0373 0 32.4688 0 30.8333V6.16667Z" fill="white"/>
</mask>
<g mask="url(#mask0_188_866)">
<path d="M34.2712 0H2.72875C1.23333 0 0 1.18708 0 2.65167V34.3483C0 35.8129 1.23333 37 2.72875 37H34.2712C35.7821 37 37 35.8129 37 34.3483V2.65167C37 1.18708 35.7667 0 34.2712 0ZM11.2233 30.9721H5.62708V14.2604H11.2233V30.9875V30.9721ZM8.4175 11.9787H8.38667C6.50583 11.9787 5.30333 10.6992 5.30333 9.09583C5.30333 7.46167 6.53667 6.21292 8.46375 6.21292C10.3754 6.21292 11.5471 7.44625 11.5779 9.09583C11.5779 10.6992 10.3754 11.9787 8.4175 11.9787ZM31.3729 30.9875H25.7767V22.0458C25.7767 19.8104 24.975 18.2687 22.9554 18.2687C21.4137 18.2687 20.4887 19.3017 20.0879 20.3037C19.9337 20.6583 19.9029 21.1517 19.9029 21.6604V30.9875H14.3067C14.3067 30.9875 14.3837 15.8483 14.3067 14.2758H19.9029V16.65C20.4081 15.7732 21.1433 15.0513 22.0291 14.5622C22.915 14.0731 23.9176 13.8354 24.9287 13.875C28.6133 13.875 31.3729 16.28 31.3729 21.4137V30.9875ZM19.8567 16.6962L19.9029 16.65V16.6962H19.8567Z" fill="#FFFFFE"/>
</g>
</g>
<defs>
<clipPath id="clip0_188_866">
<rect width="37" height="37" fill="white"/>
</clipPath>
</defs>
</svg>
