<svg width="107" height="74" viewBox="0 0 107 74" fill="none" xmlns="http://www.w3.org/2000/svg">
<path opacity="0.6" d="M32.0264 19.7705C38.8456 16.3079 47.2089 16.2637 54.3223 21.5576V21.5586C59.7038 25.6263 63.2513 31.6644 64.1836 38.3457V38.3477C65.211 45.36 63.7328 52.6974 59.4971 58.3027C53.0438 66.8426 43.5559 68.9966 35.3574 66.4736C27.1517 63.9484 20.2341 56.7354 18.959 46.5059C18.5872 43.5257 18.6694 41.481 19.0566 38.4961L19.0576 38.4873C19.9374 30.1237 25.1994 23.2371 32.0264 19.7705Z" stroke="#003075" stroke-width="0.754801"/>
<path opacity="0.6" d="M42.5089 25.3223C46.3754 31.8599 50.5002 35.8584 58.1447 37.665C59.8357 38.0647 62.6825 37.9493 64.1212 38.5225L64.3478 38.8223L64.5578 38.29C65.5975 45.3862 64.1046 52.8294 59.799 58.5273C46.6903 75.8749 21.1727 67.3167 18.5841 46.5498C18.2075 43.5308 18.2926 41.4533 18.6828 38.4453C18.7786 38.7472 18.8842 39.16 19.0363 39.4199C29.7656 39.5274 38.0103 35.4844 42.5089 25.3223ZM56.5089 22.8945H56.5099H56.5089Z" fill="#003075"/>
<path opacity="0.6" d="M64.5573 38.293C65.597 45.3892 64.1044 52.8319 59.7986 58.5299C46.69 75.8775 21.1728 67.3192 18.5842 46.5524C18.2076 43.5332 18.2925 41.4556 18.6827 38.4473C18.7786 38.7492 18.8839 39.1625 19.036 39.4225C19.0782 39.878 19.0322 40.7302 18.991 41.2208C17.9109 54.1223 27.5946 67.1071 41.3792 67.2619C47.3168 67.2728 53.0111 64.9035 57.1881 60.6838C61.6286 56.2652 63.8576 50.2981 64.2002 44.1061C64.3176 41.9839 64.1127 40.7381 64.1187 38.8474L64.1214 38.5251L64.3482 38.8247L64.5573 38.293Z" fill="#003075"/>
<path opacity="0.6" d="M98.3002 25.9774C100.297 25.945 100.795 26.8213 101.531 28.5143C100.027 31.4452 97.7024 34.6078 95.8757 37.4066C94.6983 39.2106 93.1637 41.1086 92.4112 43.1216L92.6176 43.1273C93.5347 42.4185 94.0235 41.5837 94.6794 40.6296C96.1301 40.1077 97.6827 39.7612 98.4058 41.5678C99.1033 43.3107 96.5521 45.6053 95.7289 47.3176C97.3699 46.1197 99.7339 41.9249 102.01 44.7456C103.069 46.0586 101.247 47.7523 100.84 49.2464C101.593 49.066 102.4 47.3519 103.578 47.127C105.028 46.816 106.735 49.2499 106.003 50.4568C104.839 52.3747 103.537 54.31 102.305 56.197C101.422 57.3534 100.544 59.166 99.5671 60.1941C95.9078 64.0443 93.1177 68.315 90.1664 72.7C89.8392 73.1865 89.5471 73.094 89.0146 73.1427L70.5918 73.1038C72.9664 70.1526 75.3274 66.8903 77.6269 63.8666C79.2845 61.6867 80.5801 59.6544 82.4361 57.5583C81.7572 55.9906 79.7853 51.4233 80.1113 49.9386C80.9379 46.174 82.529 38.009 84.2318 34.7765C84.8043 34.3489 84.8881 34.335 85.6199 34.4327C89.0784 34.8954 87.1616 40.8572 86.6238 43.042C89.0229 39.545 95.3942 28.4871 98.3002 25.9774Z" fill="#003075"/>
<path opacity="0.6" d="M38.3209 0.212091C48.7629 -1.11598 61.4273 3.951 68.9681 10.9907C70.0984 12.0459 71.7609 13.4196 72.4953 14.7816L72.3693 14.9918C72.0149 14.8333 68.8527 11.5975 68.1809 11.0201C62.2123 5.83159 54.9168 2.40818 47.1114 1.13408C36.5328 -0.449495 25.7565 2.19759 17.1156 8.50244C8.43685 14.8481 2.65961 24.4042 1.07339 35.0379C-0.527543 45.3956 1.93122 55.9715 7.9368 64.5611C9.6185 66.9641 12.1946 69.2843 13.5763 71.7016C11.8538 70.5879 10.2076 68.5642 8.94974 66.9542C3.79747 60.4796 0.725805 52.5972 0.138947 44.3434C-0.765682 33.4169 2.77433 22.587 9.95778 14.3042C17.3658 5.70212 27.0755 1.06049 38.3209 0.212091Z" fill="#003075"/>
<path opacity="0.6" d="M39.8763 9.08388C48.292 8.83933 56.4676 11.908 62.6442 17.6294C63.2065 18.1404 64.1364 18.888 64.1704 19.639C63.833 19.5288 63.8341 19.5779 63.6167 19.3631C59.026 14.8317 53.9194 11.8502 47.5459 10.4157C39.5201 8.64044 31.1176 10.1549 24.2169 14.6203C16.7862 19.3688 12.0279 26.6289 10.1383 35.197C8.86156 42.5095 9.6273 48.8317 13.019 55.5996C13.6402 56.839 16.1752 60.4013 16.4341 61.2674L16.1918 61.3214C12.4035 57.8652 9.33897 48.9525 8.99063 43.7459C8.35433 35.0253 11.2958 26.4213 17.1376 19.9153C23.2126 13.0511 30.8308 9.66017 39.8763 9.08388Z" fill="#003075"/>
</svg>
