<svg width="25" height="57" viewBox="0 0 25 57" fill="none" xmlns="http://www.w3.org/2000/svg">
<g opacity="0.6">
<path d="M9.93597 0.108926C12.484 -0.146612 14.6005 -0.000159255 16.9601 1.06371C19.9772 2.43875 22.2985 4.98805 23.3844 8.11838C25.6792 14.7346 22.1972 21.2625 15.5545 23.4285L15.5824 42.1758C18.0334 42.1805 20.5584 42.0832 23.0142 42.0189L23.005 45.3548L20.584 45.4482L20.5771 49.605L23.1225 49.5972C23.1199 50.8132 23.4301 53.2191 22.8306 54.0974L22.1611 54.18L15.7159 54.1804C14.0732 57.6436 9.10634 58.3046 8.8736 53.9575C8.70002 50.7272 8.81618 47.2005 8.82227 43.9528L8.84707 23.6184C4.60151 22.06 1.69631 19.8253 0.443829 15.2721C-0.439304 12.1149 0.00704966 8.7342 1.67978 5.91372C3.55133 2.8012 6.46348 0.98071 9.93597 0.108926Z" fill="#003075"/>
<path d="M11.9217 6.11153C13.8802 5.97942 15.5765 7.45397 15.7157 9.41005C15.8549 11.3657 14.384 13.0658 12.4268 13.211C10.4599 13.3574 8.7485 11.8794 8.60885 9.9146C8.4692 7.94939 9.95399 6.24451 11.9217 6.11153Z" fill="#FEFCF6"/>
</g>
</svg>
