<svg width="62" height="62" viewBox="0 0 62 62" fill="none" xmlns="http://www.w3.org/2000/svg">
<g opacity="0.6">
<path d="M4.11791 0L57.6552 0.0493429L57.6349 58.3373L61.7995 58.3608L61.8087 61.9889L57.5952 61.9414L0.000430717 62.0004C-0.00603241 60.7944 0.0618081 59.475 0.0987403 58.2603L4.16037 58.2322C4.30118 51.7333 4.17099 44.783 4.16499 38.2298L4.11791 0Z" fill="#003075"/>
<path d="M32.1347 2.75564L54.8637 2.83035L54.8213 58.2581C47.2631 58.2281 39.7049 58.2383 32.1472 58.2886L32.1347 2.75564Z" fill="white"/>
<path d="M7.08696 2.81863L29.5219 2.83662L29.539 58.3575C22.0404 58.2612 14.5413 58.2266 7.04264 58.2552L7.08696 2.81863Z" fill="white"/>
</g>
</svg>
