<svg width="60" height="44" viewBox="0 0 60 44" fill="none" xmlns="http://www.w3.org/2000/svg">
<g opacity="0.6">
<path d="M32.7108 37.7887C32.4025 38.0915 32.0922 38.3922 31.7799 38.6912C19.3968 50.5285 -0.767705 41.2405 0.0225482 23.919C0.202692 18.9066 2.40079 14.1786 6.11889 10.8066C13.7094 3.92297 25.8093 4.16022 32.6734 11.964C37.7297 17.7129 38.0383 22.7002 37.6508 30.0491C36.8049 29.9908 35.9827 30.0091 35.1285 29.967L35.0629 29.797C33.9824 30.7195 34.6207 33.5471 33.1102 34.0002C33.0453 34.0196 32.9212 34.1279 32.8352 34.1944C33.1065 34.2674 33.2917 34.2779 33.5725 34.3101C34.0969 34.7615 33.8841 36.0516 33.8549 36.7413L33.6496 36.8146C33.8464 37.2046 33.9589 37.4697 34.1255 37.8743C33.6211 37.858 33.2176 37.84 32.7108 37.7887Z" fill="#FEFDFA"/>
<path d="M32.7108 37.7887C32.4025 38.0915 32.0922 38.3922 31.7799 38.6912C19.3968 50.5285 -0.767705 41.2405 0.0225482 23.919C0.202692 18.9066 2.40079 14.1786 6.11889 10.8066C13.7094 3.92297 25.8093 4.16022 32.6734 11.964C37.7297 17.7129 38.0383 22.7002 37.6508 30.0491C36.8049 29.9908 35.9827 30.0091 35.1285 29.967L35.0629 29.797C35.536 29.1467 35.5554 28.2513 35.5938 27.4812C35.5738 27.2314 35.5816 25.4515 35.4721 25.3805C35.4327 25.3999 35.3929 25.4192 35.3535 25.4386C35.2475 24.8463 35.209 24.5884 35.2842 23.9822L35.6689 23.8776C35.2332 20.563 34.8012 18.9484 33.115 16.0505C27.057 5.63938 12.4474 5.19407 5.28853 14.7319C2.56258 18.4328 1.44025 23.0722 2.17408 27.6074C2.83619 32.0435 5.25148 36.0296 8.8795 38.6739C12.5317 41.3342 17.1026 42.4142 21.5616 41.6706C23.7009 41.3027 27.936 39.9138 29.3707 38.2561L29.4407 37.8638C30.4349 37.783 31.1612 37.8342 32.1605 37.6503C32.3414 37.6951 32.532 37.7388 32.7108 37.7887Z" fill="#003075"/>
<path d="M35.2788 23.9819L35.6632 23.8773C35.7892 24.865 35.7725 26.4949 35.5881 27.4809C35.5681 27.2311 35.5759 25.4512 35.4666 25.3802C35.4272 25.3996 35.3875 25.4189 35.3481 25.4383C35.2422 24.846 35.2038 24.5881 35.2788 23.9819Z" fill="#003075"/>
<path d="M29.8039 34.6239L29.8277 34.2947C29.8905 33.2914 30.9228 33.0758 31.4602 34.1915C32.1026 34.3066 32.1672 34.2682 32.8334 34.1939C33.1046 34.2668 33.2898 34.2774 33.5706 34.3096C34.095 34.761 33.8823 36.0511 33.853 36.7408L33.6477 36.8141C33.8445 37.2041 33.957 37.4692 34.1236 37.8738C33.6192 37.8575 33.2157 37.8395 32.709 37.7882C32.5302 37.7383 32.3395 37.6946 32.1587 37.6498C31.1594 37.8337 30.433 37.7825 29.4388 37.8632C28.9103 37.3243 29.2356 37.2985 29.8637 37.0609C30.121 36.0935 29.9731 35.6177 29.8039 34.6239Z" fill="#003075"/>
<path d="M32.834 34.1938C33.1052 34.2668 33.2905 34.2773 33.5712 34.3095C32.9876 34.4334 32.4237 34.3788 32.388 35.0162C32.3252 36.1376 31.0275 37.1857 31.4805 35.4364C31.6172 34.9099 31.4044 34.7735 31.4608 34.1914C32.1032 34.3065 32.1678 34.2681 32.834 34.1938Z" fill="#003075"/>
<path d="M33.6507 36.8132C33.8475 37.2032 33.96 37.4683 34.1266 37.8728C33.6222 37.8565 33.2187 37.8386 32.7119 37.7873C32.5331 37.7374 32.3425 37.6936 32.1616 37.6488C32.752 37.2178 32.9601 37.099 33.6507 36.8132Z" fill="#003075"/>
<path d="M35.3523 25.4372C34.8543 25.4396 32.1358 25.4919 31.9958 25.2702C30.7056 23.228 34.6606 23.8895 35.2829 23.9808C35.2078 24.587 35.2462 24.845 35.3523 25.4372Z" fill="#003075"/>
<path d="M17.7431 23.3351C17.5058 21.1201 16.1089 15.5524 16.2078 13.0414C16.2169 12.8123 17.1805 12.5574 17.2268 12.7896C17.5293 14.3003 19.1574 22.2327 18.8263 23.1566L18.756 23.5574C18.4643 23.4888 18.1574 23.5683 17.9361 23.7699L17.7431 23.3351Z" fill="#003075"/>
<path d="M20.9664 25.5964L21.1758 25.6272C21.8556 25.7206 25.3837 25.9829 25.6056 26.208C25.7351 26.3397 25.6196 27.2788 25.6152 27.4774C24.7579 27.4336 23.8579 27.2887 22.9861 27.2014C20.9664 26.9988 21.1676 27.2717 20.9664 25.5964Z" fill="#003075"/>
<path d="M18.1068 8.56359C18.3216 8.58293 19.2903 8.59957 19.3308 8.73839C19.5218 9.39481 19.3695 11.7605 19.2788 12.3585C19.2798 12.3585 18.9334 12.4081 18.9327 12.4108C18.9239 12.4488 18.2013 12.552 18.1649 12.4431C17.9916 11.9231 18.1007 8.97088 18.1068 8.56359Z" fill="#003075"/>
<path d="M18.0769 37.5744C18.3196 37.5883 19.1157 37.5907 19.1639 37.7105C19.3108 38.074 19.3825 41.1175 19.3852 41.3819L19.2377 41.4117C17.5358 41.7698 18.165 41.316 18.0701 39.6821C18.0314 39.0155 18.0759 38.2501 18.0769 37.5744Z" fill="#003075"/>
<path d="M2.48804 24.0278C2.95098 24.0298 5.34485 23.9558 5.77856 24.1038C5.91111 24.1493 5.86931 25.1506 5.87576 25.4129C5.43458 25.4119 3.04275 25.4863 2.69844 25.3182C2.55704 25.2493 2.51591 24.2888 2.48804 24.0278Z" fill="#003075"/>
<path d="M18.202 25.1564C18.4233 24.9548 18.7302 24.8754 19.0219 24.9439C19.428 25.0393 19.7166 25.3991 19.7214 25.8159C19.7261 26.2323 19.4461 26.5985 19.0419 26.7034C18.6381 26.8083 18.215 26.6243 18.0158 26.2581C17.8169 25.8919 17.8938 25.4374 18.202 25.1564Z" fill="#003075"/>
<path d="M8.52029 34.3901C9.77688 35.3394 8.97506 35.1989 8.00909 36.4017C6.33817 35.7019 7.62773 35.1629 8.52029 34.3901Z" fill="#003075"/>
<path d="M29.727 13.2368C30.731 14.0364 30.5944 14.2075 29.6253 14.7556L29.3364 14.9379C27.7518 14.5388 29.2049 13.7211 29.727 13.2368Z" fill="#003075"/>
<path d="M8.47164 12.4815C9.06781 13.0514 10.1062 13.6572 9.77173 14.3011L9.6718 14.4993C8.89617 14.3398 8.6144 13.9559 8.0291 13.3626C7.94379 13.2757 8.41351 12.5878 8.47164 12.4815Z" fill="#003075"/>
<path d="M38.9487 31.1917C39.4891 31.7562 39.4008 33.1284 39.7944 33.9274C40.5149 33.9382 41.4378 33.8048 41.9812 34.1263C42.0485 34.538 42.0234 34.5207 41.8813 34.9212C42.2195 35.3376 42.0071 35.212 42.5458 35.2996C42.8799 35.0308 42.8582 35.1533 42.8884 34.6785C43.0047 32.8613 42.7045 30.3724 42.9748 28.6264C43.0709 28.548 44.7374 27.1833 44.73 27.2067C45.0226 26.2893 44.6151 25.7462 45.6973 25.4095C46.197 25.5704 45.9641 25.3963 46.1837 25.6821C46.3924 25.9536 46.3978 27.1785 46.4311 27.205C46.8519 27.5407 47.9698 28.2161 48.1377 28.7877C48.7611 30.9107 47.8366 33.7162 48.8043 35.7011C48.9436 35.9866 48.996 36.3273 49.0456 36.6437L49.395 36.8436C51.6805 35.9638 46.7547 27.4175 53.3939 29.9047C53.7491 30.0377 53.8976 30.2 54.0733 30.5428C54.0346 32.0022 53.9132 34.6333 54.1641 36.0117L54.4037 36.2581L54.7772 36.2293C55.3173 35.4557 55.1171 34.1843 55.0797 33.1773C55.9805 33.1532 57.0885 33.0469 57.9243 33.2899C58.3906 33.8629 57.6877 34.4025 59.6717 34.8051C59.8784 35.3322 59.7519 37.1986 59.7308 37.8856C51.5285 37.9199 42.1502 37.6107 34.1226 37.8734C33.956 37.4688 33.8435 37.2037 33.6467 36.8137L33.852 36.7404C33.8812 36.0507 34.094 34.7606 33.5696 34.3092C33.2888 34.277 33.1036 34.2664 32.8323 34.1935C32.9183 34.1269 33.0424 34.0187 33.1073 33.9993C34.6178 33.5462 33.9795 30.7186 35.06 29.7961L35.1256 29.9661C35.9797 30.0082 36.8019 29.9899 37.6479 30.0482C39.5123 30.4287 38.3903 29.8398 38.9487 31.1917Z" fill="#003075"/>
<path d="M37.6475 30.0488C39.5119 30.4293 38.3899 29.8404 38.9483 31.1923C38.2995 31.3823 36.6965 31.4798 36.1496 31.2157L35.2207 31.1485C35.1687 31.0355 35.1167 30.9224 35.0647 30.8094C35.0786 30.5185 35.083 30.2558 35.1252 29.9667C35.9793 30.0087 36.8015 29.9904 37.6475 30.0488Z" fill="#003075"/>
<path d="M35.224 31.1466C35.6844 30.535 36.0813 30.1029 36.152 31.2138L35.224 31.1466Z" fill="#003075"/>
<path d="M35.06 29.7975L35.1256 29.9675C35.0834 30.2567 35.079 30.5194 35.0651 30.8103C34.8751 31.6551 34.7694 32.4398 34.5954 33.2385C34.3166 34.5167 35.2146 36.6492 33.852 36.7419C33.8812 36.0522 34.094 34.7621 33.5696 34.3107C33.2888 34.2784 33.1036 34.2679 32.8323 34.1949C32.9183 34.1284 33.0424 34.0201 33.1073 34.0008C34.6178 33.5477 33.9795 30.72 35.06 29.7975Z" fill="#003075"/>
<path d="M23.4073 0.200209C27.4004 -0.40564 33.5834 0.351932 36.982 2.63108C43.0345 6.68976 45.2734 10.9714 46.908 17.7128C47.5398 16.6807 48.6435 14.3333 49.6366 13.9114C50.2148 13.9318 50.0037 13.8116 50.3511 14.1517C50.5775 15.4289 47.5194 20.5757 46.6 20.8972C45.6833 20.5275 44.0807 19.2609 43.2255 18.6357C42.3303 18.0431 41.0431 17.628 40.6706 16.6861C40.8395 16.1074 40.6842 16.3399 41.1488 15.9608C42.3677 15.7666 44.113 17.2125 45.2608 17.9494C43.1096 6.03265 32.5974 -0.64831 20.9057 2.39587C20.0784 2.61139 19.2267 2.86188 18.3756 2.92229C17.726 2.46782 17.6213 2.41792 17.8355 1.70754C18.917 0.68557 21.8476 0.428293 23.4073 0.200209Z" fill="#003075"/>
</g>
</svg>
