<svg width="69" height="47" viewBox="0 0 69 47" fill="none" xmlns="http://www.w3.org/2000/svg">
<g opacity="0.6">
<path d="M31.9559 0.130857C32.5445 0.0321797 34.3212 -0.00436293 34.9496 0.000409539C42.1795 0.0265645 49.0898 2.9846 54.099 8.19778C60.0776 14.3384 61.3808 20.9342 61.2956 29.0577L37.7853 29.0441L8.09924 29.0193C7.28224 22.3018 9.20494 15.538 13.434 10.2551C18.1619 4.25245 24.4326 0.998137 31.9559 0.130857Z" fill="#003075"/>
<path d="M0.243276 35.177C4.42406 34.8676 10.7875 35.0678 15.1489 35.0713L42.9383 35.0995L59.5053 35.066C61.7698 35.0579 64.0374 35.0404 66.3019 35.0646C67.3102 35.0758 68.0144 35.121 68.5549 36.1331C68.5329 36.919 68.5254 36.863 68.145 37.5303C66.2059 38.0587 58.5052 37.8039 56.0023 37.8249C44.1166 37.94 32.23 37.9521 20.3443 37.8612L6.91634 37.8908C5.03465 37.8943 2.89804 37.9311 1.0077 37.8048C0.45456 37.7681 0.353845 37.4927 0.0918329 37.0901C-0.0553032 36.1416 -0.0399803 36.1089 0.243276 35.177Z" fill="#003075"/>
<path d="M9.29091 44.0573C13.8101 43.9858 58.3026 43.6756 59.7504 44.2642C60.3432 44.5056 60.3858 44.6703 60.5978 45.2158C60.3732 46.3177 60.5248 45.9163 59.7691 46.8156C50.9829 47.1974 39.3681 46.8647 30.3185 46.8684L17.1455 46.8708C14.753 46.8698 11.7321 46.9695 9.41583 46.7341C8.62317 46.2167 8.90301 46.5489 8.50106 45.7394C8.57874 44.8509 8.74157 44.747 9.29091 44.0573Z" fill="#003075"/>
</g>
</svg>
