<svg width="54" height="54" viewBox="0 0 54 54" fill="none" xmlns="http://www.w3.org/2000/svg">
<defs>
<mask id="brochure-circle-mask" maskUnits="userSpaceOnUse" x="0" y="0" width="54" height="54">
<rect width="54" height="54" fill="white"/>
<g transform="translate(-1.45 0.5)">
<path d="M40.5566 29.8963C40.2548 29.8964 39.9652 30.0155 39.7518 30.2283C39.5384 30.4412 39.4188 30.7302 39.4188 31.0312V35.5728C39.4579 36.0221 39.322 36.4697 39.0395 36.8219C38.757 37.1738 38.3496 37.4037 37.9017 37.4643H18.9789C18.5308 37.4038 18.1227 37.174 17.8401 36.8219C17.5576 36.4697 17.4217 36.0221 17.4608 35.5728V31.0312C17.4608 30.7302 17.3413 30.4412 17.1278 30.2283C16.9144 30.0155 16.6248 29.8964 16.3229 29.8963C16.0212 29.8963 15.7315 30.0154 15.5181 30.2283C15.3046 30.4412 15.1851 30.7302 15.1851 31.0312V35.5728C15.1628 36.0973 15.2437 36.6213 15.4245 37.1145C15.6054 37.6079 15.8827 38.0609 16.2392 38.4474C16.5959 38.8341 17.0252 39.1478 17.5032 39.3686C17.9809 39.5894 18.4981 39.7135 19.0242 39.735H37.9017C38.9563 39.68 39.9468 39.2122 40.6571 38.4327C41.3675 37.6532 41.7408 36.6252 41.6955 35.5728V31.0312C41.6955 30.7302 41.575 30.4412 41.3615 30.2283C41.1482 30.0155 40.8584 29.8963 40.5566 29.8963ZM28.4629 13.2453C28.1613 13.2453 27.8715 13.3648 27.6581 13.5773C27.4447 13.7902 27.3242 14.0792 27.3241 14.3802V28.2915L23.1963 24.1746C22.9806 23.9741 22.6952 23.865 22.4003 23.8702C22.1056 23.8755 21.8246 23.9943 21.6162 24.2022C21.4078 24.4101 21.2885 24.6904 21.2832 24.9844C21.278 25.2785 21.3875 25.5631 21.5886 25.7784L27.6581 31.8331C27.7631 31.9393 27.8884 32.0242 28.0265 32.0814C28.1645 32.1385 28.3126 32.1678 28.462 32.1671C28.6115 32.1678 28.7603 32.1386 28.8984 32.0814C29.0364 32.0242 29.1618 31.9393 29.2668 31.8331L35.3363 25.7784C35.5372 25.5632 35.6469 25.2784 35.6417 24.9844C35.6364 24.6905 35.5171 24.4101 35.3088 24.2022C35.1003 23.9942 34.8184 23.8754 34.5236 23.8702C34.2288 23.865 33.9434 23.9741 33.7276 24.1746L29.6008 28.2905V14.3802C29.6007 14.0792 29.4802 13.7902 29.2668 13.5773C29.0536 13.3649 28.7644 13.2455 28.4629 13.2453Z" fill="black"/>
</g>
</mask>
</defs>
<path d="M26.999 0C41.9102 0 53.9989 12.0878 53.999 26.999C53.999 41.9103 41.9103 53.999 26.999 53.999C12.0878 53.9989 0 41.9102 0 26.999C0.000159099 12.0879 12.0879 0.000159109 26.999 0Z" fill="#B68A3D" mask="url(#brochure-circle-mask)"/>
</svg>
