<svg width="17" height="10" viewBox="0 0 17 10" fill="none" xmlns="http://www.w3.org/2000/svg">
<path d="M8.49968 9.83292C8.32267 9.83377 8.14723 9.79923 7.98374 9.7315C7.82025 9.66376 7.67186 9.56402 7.5475 9.43821L0.361595 2.26269C0.123611 2.00756 -0.00594802 1.67033 0.000209872 1.32174C0.00636777 0.973157 0.147759 0.640632 0.394558 0.394075C0.641477 0.147638 0.974486 0.00636796 1.32355 0.000210062C1.67262 -0.00594783 2.01046 0.123489 2.26583 0.361112L8.49968 6.5859L14.7334 0.361112C14.9889 0.123489 15.3266 -0.00594783 15.6757 0.000210062C16.0247 0.00636796 16.3579 0.147638 16.6047 0.394075C16.8516 0.640632 16.993 0.973157 16.9991 1.32174C17.0053 1.67033 16.8757 2.00756 16.6378 2.26269L9.45174 9.43821C9.32737 9.56402 9.1791 9.66376 9.01561 9.7315C8.85213 9.79923 8.67669 9.83377 8.49968 9.83292Z" fill="white"/>
</svg>
