<svg width="42" height="42" viewBox="0 0 42 42" fill="none" xmlns="http://www.w3.org/2000/svg">
<g opacity="0.6" clip-path="url(#clip0_212_183)">
<path d="M39.9 25.2V27.3C39.9 31.311 37.653 34.797 34.335 36.561L35.7 42H31.5L30.45 37.8H11.55L10.5 42H6.3L7.665 36.561C5.98374 35.6684 4.57737 34.3347 3.59692 32.703C2.61648 31.0714 2.09898 29.2035 2.1 27.3V25.2H0V21H37.8V6.3C37.8 5.74305 37.5788 5.2089 37.185 4.81507C36.7911 4.42125 36.257 4.2 35.7 4.2C34.65 4.2 33.852 4.914 33.6 5.859C34.923 6.993 35.7 8.673 35.7 10.5H23.1C23.1 8.82913 23.7638 7.2267 24.9453 6.04523C26.1267 4.86375 27.7292 4.2 29.4 4.2H29.757C30.618 1.764 32.949 0 35.7 0C37.3708 0 38.9733 0.663749 40.1547 1.84522C41.3363 3.0267 42 4.62913 42 6.3V25.2H39.9ZM35.7 25.2H6.3V27.3C6.3 28.9709 6.96375 30.5733 8.14523 31.7547C9.3267 32.9362 10.9291 33.6 12.6 33.6H29.4C31.0709 33.6 32.6733 32.9362 33.8547 31.7547C35.0362 30.5733 35.7 28.9709 35.7 27.3V25.2Z" fill="#003075"/>
</g>
<defs>
<clipPath id="clip0_212_183">
<rect width="42" height="42" fill="white"/>
</clipPath>
</defs>
</svg>
