<svg width="33" height="26" viewBox="0 0 33 26" fill="none" xmlns="http://www.w3.org/2000/svg">
  <path fill-rule="evenodd" clip-rule="evenodd" d="M7.99066 5.21031H3.49191C2.56539 5.21031 1.67728 5.57812 1.02313 6.23344C0.367815 6.88759 0 7.7757 0 8.70222C0 11.0139 0 14.5384 0 16.85C0 17.7765 0.367815 18.6646 1.02313 19.3188C1.67728 19.9741 2.56539 20.3419 3.49191 20.3419H7.99066L11.2847 24.2948C12.2263 25.425 13.7744 25.844 15.1561 25.3435C16.5389 24.843 17.4596 23.53 17.4596 22.06V3.49229C17.4596 2.02219 16.5389 0.709236 15.1561 0.208728C13.7744 -0.291779 12.2263 0.12725 11.2847 1.25747L7.99066 5.21031Z" fill="#003075"/>
  <path fill-rule="evenodd" clip-rule="evenodd" d="M26.2571 2.7633C28.748 5.37525 30.2775 8.91023 30.2775 12.7991C30.2775 16.6681 28.7632 20.1868 26.2955 22.7941C25.8544 23.2608 25.8742 23.9976 26.3409 24.4399C26.8077 24.8811 27.5445 24.8613 27.9868 24.3945C30.849 21.3694 32.6054 17.2873 32.6054 12.7991C32.6054 8.28751 30.8304 4.18684 27.9414 1.15702C27.4979 0.692599 26.76 0.67514 26.2955 1.11745C25.8311 1.56092 25.8137 2.29888 26.2571 2.7633Z" fill="#003075"/>
  <path fill-rule="evenodd" clip-rule="evenodd" d="M23.2269 5.81533C24.988 7.609 26.074 10.0661 26.074 12.7759C26.074 15.4751 24.995 17.9253 23.2455 19.7178C22.7974 20.1776 22.8055 20.9155 23.2653 21.3636C23.7251 21.8129 24.463 21.8036 24.9112 21.3439C27.0715 19.1323 28.4019 16.1083 28.4019 12.7759C28.4019 9.43178 27.0622 6.39848 24.8891 4.1846C24.4386 3.726 23.7018 3.71901 23.2432 4.16831C22.7846 4.61876 22.7776 5.35672 23.2269 5.81533Z" fill="#003075"/>
  <path fill-rule="evenodd" clip-rule="evenodd" d="M20.135 9.07464C21.0825 10.0221 21.6679 11.3304 21.6679 12.7749C21.6679 14.2217 21.0801 15.5335 20.1292 16.481C19.6741 16.9349 19.6729 17.6729 20.1268 18.128C20.5808 18.582 21.3176 18.5831 21.7727 18.1292C23.1462 16.7592 23.9959 14.8654 23.9959 12.7749C23.9959 10.6891 23.1497 8.79762 21.782 7.42879C21.3269 6.97484 20.5901 6.97368 20.135 7.42879C19.681 7.88274 19.681 8.61953 20.135 9.07464Z" fill="#003075"/>
</svg>
