<svg xmlns="http://www.w3.org/2000/svg" width="512" height="512" viewBox="0 0 64 64">
  <rect width="64" height="64" rx="14" fill="#003075"/>
  <g fill="none" stroke="#fff" stroke-width="2.8" stroke-linecap="round" stroke-linejoin="round">
    <path d="M11 18h29M12 24h25M16 30h18"/>
    <path d="M18 30v21M27 30v21"/>
    <path d="M33 52c6-8 8-20 13-37"/>
    <path d="M42 25c4-1 7-4 9-8M39 34c5-1 9-4 12-8M36 43c5-1 9-4 12-8"/>
  </g>
  <g fill="#fff">
    <path d="M44 21c0-5 3-9 8-11 0 5-3 9-8 11Z"/>
    <path d="M42 29c3-4 7-6 12-5-2 4-6 7-12 5Z"/>
    <path d="M39 38c3-4 8-5 12-3-3 4-7 6-12 3Z"/>
    <path d="M36 47c3-4 7-5 11-3-2 4-6 6-11 3Z"/>
  </g>
</svg>
