<svg width="37" height="37" viewBox="0 0 37 37" fill="none" xmlns="http://www.w3.org/2000/svg">
<g clip-path="url(#clip0_188_880)">
<path d="M0 6.16667C0 4.53116 0.649701 2.96265 1.80617 1.80617C2.96265 0.649701 4.53116 0 6.16667 0L30.8333 0C32.4688 0 34.0373 0.649701 35.1938 1.80617C36.3503 2.96265 37 4.53116 37 6.16667V30.8333C37 32.4688 36.3503 34.0373 35.1938 35.1938C34.0373 36.3503 32.4688 37 30.8333 37H6.16667C4.53116 37 2.96265 36.3503 1.80617 35.1938C0.649701 34.0373 0 32.4688 0 30.8333V6.16667Z" fill="#FFFFFE"/>
<path d="M18.4379 13.8131C17.1949 13.8131 16.0029 14.3069 15.1239 15.1858C14.245 16.0647 13.7513 17.2568 13.7513 18.4998C13.7513 19.7428 14.245 20.9348 15.1239 21.8138C16.0029 22.6927 17.1949 23.1865 18.4379 23.1865C19.6809 23.1865 20.873 22.6927 21.7519 21.8138C22.6308 20.9348 23.1246 19.7428 23.1246 18.4998C23.1246 17.2568 22.6308 16.0647 21.7519 15.1858C20.873 14.3069 19.6809 13.8131 18.4379 13.8131ZM32.39 24.2965C32.3283 25.4527 32.0817 26.609 31.6654 27.6881C31.2987 28.5943 30.7535 29.4175 30.0622 30.1087C29.371 30.7999 28.5478 31.3451 27.6417 31.7119C26.5471 32.1127 25.3908 32.3285 24.2192 32.3748H12.6721C11.5029 32.3405 10.347 32.1166 9.24958 31.7119C8.3162 31.3644 7.4731 30.8112 6.78292 30.0931C6.10035 29.413 5.57425 28.5923 5.24125 27.6881C4.83551 26.5969 4.61661 25.4451 4.59375 24.281V12.7185C4.60917 11.5623 4.825 10.406 5.22583 9.31146C5.57776 8.37662 6.13639 7.53339 6.86 6.84479C7.53569 6.15672 8.35033 5.62064 9.24958 5.27229C10.3442 4.87146 11.5004 4.65562 12.6721 4.60938H24.2192C25.3908 4.64021 26.5317 4.87146 27.6417 5.27229C28.5667 5.61146 29.4146 6.16646 30.1083 6.89104C30.8021 7.56937 31.3263 8.38646 31.65 9.29604C32.0663 10.3752 32.2821 11.5469 32.3129 12.7031V18.4998C32.3129 22.3848 32.4517 22.7856 32.39 24.281V24.2965ZM29.3683 10.2519C29.1448 9.64241 28.7921 9.08851 28.3344 8.62815C27.8767 8.16779 27.3248 7.81187 26.7167 7.58479C25.8745 7.29248 24.9872 7.15156 24.0958 7.16854H12.7954C11.9046 7.17808 11.0226 7.3451 10.19 7.66187C9.5905 7.87806 9.04395 8.21948 8.58672 8.66342C8.1295 9.10735 7.7721 9.6436 7.53833 10.2365C7.2627 11.0771 7.12728 11.9573 7.1375 12.8419V24.1577C7.15292 25.0519 7.3225 25.9306 7.63083 26.7785C7.85535 27.3857 8.2086 27.937 8.66632 28.3947C9.12403 28.8524 9.67538 29.2057 10.2825 29.4302C11.0996 29.7385 11.9321 29.8927 12.7954 29.9235H24.1267C25.0174 29.914 25.8995 29.747 26.7321 29.4302C27.3402 29.2031 27.8921 28.8472 28.3498 28.3869C28.8075 27.9265 29.1602 27.3726 29.3837 26.7631C29.6921 25.9306 29.8771 25.0673 29.8771 24.1577V12.8419C29.8771 11.9477 29.7229 11.069 29.3837 10.221V10.2519H29.3683ZM18.4379 25.7148C16.7537 25.7417 15.1135 25.1759 13.804 24.1163C12.4945 23.0567 11.599 21.5707 11.274 19.9179C10.9489 18.2651 11.215 16.5506 12.0257 15.074C12.8364 13.5974 14.1401 12.4527 15.7092 11.8398C16.6963 11.4285 17.7626 11.2419 18.8307 11.2933C19.8989 11.3447 20.9422 11.6329 21.8853 12.1371C22.8284 12.6412 23.6476 13.3488 24.2837 14.2084C24.9198 15.0681 25.3568 16.0584 25.5632 17.1077C25.7696 18.157 25.7401 19.239 25.4769 20.2755C25.2138 21.312 24.7235 22.2771 24.0415 23.1008C23.3596 23.9246 22.5031 24.5864 21.5339 25.0385C20.5648 25.4906 19.5073 25.7216 18.4379 25.7148ZM25.9921 12.7031C25.5423 12.7031 25.111 12.5245 24.7929 12.2064C24.4749 11.8884 24.2963 11.4571 24.2963 11.0073C24.2963 10.5575 24.4749 10.1262 24.7929 9.80816C25.111 9.49013 25.5423 9.31146 25.9921 9.31146C26.4418 9.31146 26.8732 9.49013 27.1912 9.80816C27.5092 10.1262 27.6879 10.5575 27.6879 11.0073C27.6879 11.4571 27.5092 11.8884 27.1912 12.2064C26.8732 12.5245 26.4418 12.7031 25.9921 12.7031Z" fill="#003075"/>
</g>
<defs>
<clipPath id="clip0_188_880">
<rect width="37" height="37" fill="white"/>
</clipPath>
</defs>
</svg>
