<svg width="50" height="56" viewBox="0 0 50 56" fill="none" xmlns="http://www.w3.org/2000/svg">
<g opacity="0.6">
<path d="M3.29934 16.3269C4.21642 16.2491 6.08017 16.0776 6.81708 16.5231C8.83342 17.7425 11.1111 19.9225 12.9623 21.4584C17.1054 24.9109 21.2813 28.3237 25.4897 31.6963C27.741 31.7157 47.5547 31.5706 48.3127 31.8888C48.5793 32.5958 48.5014 32.8232 48.4264 33.5658C47.866 33.9347 46.9704 33.8463 46.253 33.8549L46.3203 53.8186C47.4882 53.7923 48.6451 53.549 49.4457 54.5328C49.6185 55.4332 49.6604 55.0014 49.2696 55.8701L48.8017 56.0003L0.133796 55.8243C0.135014 50.8627 -0.359223 21.2083 0.544461 18.7664C1.00827 17.513 2.17004 16.8904 3.29934 16.3269Z" fill="#003075"/>
<path d="M33.3793 38.9348C33.6723 38.6426 33.652 38.7001 33.9677 38.951C34.0306 40.7225 34.1284 48.2302 33.9722 49.9222C33.8744 50.6559 34.1864 54.2389 33.3229 53.2454C33.2953 53.4107 33.2349 53.8542 33.0644 53.8643C30.736 54.007 25.7266 53.8583 23.6445 53.9442C23.358 53.9239 23.0626 53.9142 22.7749 53.9008C20.1365 54.0338 16.1468 53.9191 13.4155 53.8789L13.4017 39.1983C14.9457 39.161 21.8132 39.0159 22.867 39.3483C23.382 39.3102 23.3653 39.3381 23.8097 39.1363C25.8041 38.7033 26.9071 40.5607 28.7416 39.5258C30.355 38.6162 31.6085 39.1359 33.3793 38.9348Z" fill="white"/>
<path d="M13.4017 39.1982C14.9457 39.1609 21.8132 39.0158 22.867 39.3482C22.7059 40.8128 22.783 43.292 22.7834 44.8226L22.7749 53.9007C20.1365 54.0337 16.1468 53.919 13.4155 53.8788L13.4017 39.1982Z" fill="white"/>
<path d="M22.8683 39.3485C23.3832 39.3104 23.3666 39.3384 23.8109 39.1365C23.7379 42.2951 24.028 51.4353 23.6458 53.9445C23.3593 53.9242 23.0639 53.9145 22.7762 53.9011L22.7847 44.823C22.7843 43.2923 22.7072 40.8131 22.8683 39.3485Z" fill="#003075"/>
<path d="M33.3789 38.9348C33.6716 38.6426 33.6513 38.7001 33.9667 38.951C34.0295 40.7225 34.1272 48.2302 33.9711 49.9222C33.8734 50.6559 34.1852 54.2389 33.3226 53.2454C33.1734 50.6863 33.1835 41.3212 33.3789 38.9348Z" fill="#003075"/>
<path d="M33.9675 38.9512C35.0582 39.1656 41.7338 39.0213 43.5043 39.07L43.5116 53.8459C40.3639 53.8321 37.2158 53.8374 34.0681 53.8605C34.0636 52.6002 34.1123 51.1612 33.9719 49.9224C34.1282 48.2304 34.0304 40.7226 33.9675 38.9512Z" fill="white"/>
<path d="M27.7713 33.7558C33.0384 33.7234 38.3059 33.7181 43.573 33.7408C43.545 35.2431 43.5617 36.8297 43.4911 38.321C39.0936 38.3847 34.6867 38.3214 30.29 38.3616C30.5299 35.5106 30.2547 35.3432 27.7713 33.7558Z" fill="white"/>
<path d="M13.3954 33.7203C15.049 33.6862 16.703 33.6903 18.3562 33.7316C19.3743 34.428 23.3952 37.4991 24.3285 38.3252C20.6768 38.2506 17.0706 38.3142 13.4242 38.3151C13.3922 36.7836 13.3824 35.2521 13.3954 33.7203Z" fill="white"/>
<path d="M13.2711 29.382C14.2847 29.9924 15.3548 31.0245 16.2187 31.8482C15.1965 31.8308 14.2109 31.8514 13.1907 31.8681C13.2017 30.9892 13.2191 30.2588 13.2711 29.382Z" fill="white"/>
<path d="M6.06691 0.228029C8.50609 -0.412446 11.1011 0.31882 12.8456 2.13809C14.59 3.95736 15.2101 6.57845 14.4651 8.9855C13.7196 11.3921 11.7268 13.2061 9.25843 13.7238C5.57187 14.4972 1.94048 12.1931 1.07453 8.53068C0.208588 4.86863 2.42376 1.18428 6.06691 0.228029Z" fill="#003075"/>
</g>
</svg>
