<svg width="55" height="61" viewBox="0 0 55 61" fill="none" xmlns="http://www.w3.org/2000/svg">
<g opacity="0.6">
<path d="M17.8179 0.223711C19.3808 -0.013589 34.1276 -0.102342 35.7333 0.158871L36.1675 0.309714C41.951 0.103227 48.408 0.220018 54.2431 0.209901L54.3043 60.8998C48.4725 60.7227 42.0348 60.7793 36.1767 60.8671L35.8853 60.9978C34.163 60.6671 21.0478 60.8621 18.4633 60.8842L17.9431 60.9044C13.3427 60.5415 4.82552 60.7867 0.0142739 60.7775L0 0.185088C4.99677 0.152436 13.083 -0.115683 17.8179 0.223711Z" fill="#003075"/>
<path d="M36.1656 0.311359C41.9491 0.104872 48.4062 0.221663 54.2413 0.211546L54.3025 60.9014C48.4706 60.7244 42.0329 60.7809 36.1748 60.8688C36.3129 54.3173 36.2139 47.5312 36.2457 40.9448C36.3111 27.4003 36.2844 13.8554 36.1656 0.311359Z" fill="#003075"/>
<path d="M40.0561 21.6725C43.5088 21.6596 46.9619 21.6642 50.4151 21.6858L50.4211 29.3296C46.9905 29.359 43.4876 29.393 40.0611 29.3663L40.0561 21.6725Z" fill="white"/>
<path d="M40.031 31.9893C43.4888 31.9709 46.9471 31.9796 50.4049 32.0151L50.403 39.6284L40.0476 39.6303C40.0274 37.0834 40.0218 34.5361 40.031 31.9893Z" fill="white"/>
<path d="M40.0787 41.9913L50.3863 41.9798L50.3821 49.5325L40.1114 49.5375C40.0806 47.0224 40.0695 44.5068 40.0787 41.9913Z" fill="white"/>
<path d="M40.0669 11.697C43.4151 11.5843 47.0552 11.6138 50.4135 11.6446L50.4168 19.0469C46.964 19.0308 43.498 19.0731 40.0462 19.0298C40.031 16.6863 39.9882 14.0309 40.0669 11.697Z" fill="white"/>
<path d="M0 0.186108C4.99677 0.153457 13.083 -0.114663 17.8179 0.224731C17.6434 8.74223 17.7682 17.6925 17.7884 26.2339L17.9431 60.9054C13.3427 60.5426 4.82552 60.7877 0.0142739 60.7785L0 0.186108Z" fill="#003075"/>
<path d="M4.8518 31.9408L15.1101 31.9537L15.1087 39.6489L4.84397 39.6522C4.82464 37.2709 4.75466 34.3 4.8518 31.9408Z" fill="white"/>
<path d="M4.85059 21.6842C8.2522 21.6391 11.7878 21.6621 15.1949 21.6745L15.1866 29.2916L4.86025 29.2842C4.84322 26.7507 4.84 24.2177 4.85059 21.6842Z" fill="white"/>
<path d="M4.87451 11.6417C8.30283 11.6081 11.7316 11.6145 15.1595 11.661C15.1567 14.0952 15.1986 16.6645 15.1457 19.0849C11.7252 19.1014 8.30513 19.0863 4.88509 19.0394C4.83722 16.5739 4.834 14.1075 4.87451 11.6417Z" fill="white"/>
<path d="M5.4682 42.0638C8.68843 42.0638 11.9087 42.0818 15.1289 42.1172C15.1248 43.1703 15.319 48.9906 14.8831 49.4505C11.597 49.439 8.3114 49.4477 5.02533 49.4772C5.02119 48.3836 4.66256 42.4037 5.4682 42.0638Z" fill="white"/>
<path d="M17.8176 0.223711C19.3805 -0.013589 34.1273 -0.102342 35.7331 0.158871C33.0224 0.509302 21.6823 0.323044 18.4128 0.233367L18.463 39.7406C18.481 46.4346 18.6973 54.2784 18.463 60.8842L17.9428 60.9044L17.7881 26.2329C17.7679 17.6914 17.6431 8.74121 17.8176 0.223711Z" fill="#003075"/>
<path d="M35.7319 0.16031L36.1655 0.311153C36.2842 13.8552 36.3108 27.4001 36.2455 40.9446C36.2138 47.531 36.3127 54.3171 36.1747 60.8686L35.8836 60.9992C35.4923 59.4167 35.6882 46.1123 35.6928 43.3305L35.7319 0.16031Z" fill="#003075"/>
<path d="M22.1275 11.6617C25.6221 11.6328 29.1167 11.6249 32.6113 11.6392C32.5929 14.1322 32.5892 16.6248 32.6003 19.1178C29.1103 19.1372 25.6198 19.1298 22.1298 19.0953C22.1132 16.6556 22.0851 14.0959 22.1275 11.6617Z" fill="white"/>
<path d="M22.2831 32.0207C25.7469 31.9826 29.2111 31.9775 32.6753 32.0056L32.6643 39.5399C29.2116 39.5785 25.7579 39.5808 22.3048 39.5463L22.2831 32.0207Z" fill="white"/>
<path d="M22.1795 21.8899C25.6598 21.8526 29.1411 21.8604 32.6215 21.9124L32.6265 29.2857C29.1577 29.2678 25.652 29.3055 22.1915 29.2549L22.1795 21.8899Z" fill="white"/>
<path d="M22.2443 42.1335C25.6542 42.093 29.0651 42.0903 32.475 42.1257L32.4837 49.5454L22.2692 49.5178C22.2305 47.0565 22.2222 44.5948 22.2443 42.1335Z" fill="white"/>
</g>
</svg>
