<svg width="73" height="47" viewBox="0 0 73 47" fill="none" xmlns="http://www.w3.org/2000/svg">
<g opacity="0.4">
<path d="M54.4006 0.589943C48.5792 1.76554 40.7514 6.28306 36.4597 10.1931C26.9513 18.8568 25.487 32.2594 25.7369 44.4338C25.7539 45.281 25.6868 46.0999 25.044 46.6934C23.7886 47.0105 2.13209 47.1334 0.30683 46.8105C-0.2589 46.077 0.0925606 44.6901 0.295643 43.8153C2.85241 32.7807 7.21661 22.6734 15.2346 14.5244C23.0189 6.68514 33.2041 1.71291 44.1449 0.410577C47.5447 -0.00416787 50.7273 0.0291722 54.1469 0L54.4006 0.589943Z" fill="#003075"/>
<path d="M40.3922 3.67141L40.4353 3.9454C38.2089 5.18883 36.1381 7.02651 34.3316 8.80438C24.4336 18.5488 23.1612 31.0055 23.1446 44.0622L3.06144 44.0465L2.97097 43.9582C2.60536 42.4948 5.93734 33.3756 6.60092 31.8536C7.61392 29.5644 8.75391 27.3334 10.0151 25.1696C17.1434 13.051 26.9796 7.11854 40.3922 3.67141Z" fill="#003075"/>
<path d="M35.6638 37.5263C41.5846 36.8766 40.7439 40.7065 45.5071 41.2933C47.5273 41.5425 50.3695 38.7588 52.4698 38.073C57.4917 36.4329 58.7745 40.294 62.5545 41.2942C65.6132 41.308 67.9462 38.2464 70.8822 37.7858C71.82 37.6387 72.1428 38.542 72.0192 39.4352C71.3145 40.4692 69.8598 41.0636 68.7294 41.6843C64.1985 44.6371 62.2276 44.8935 57.9281 41.5256C52.6322 37.3774 48.6725 46.3912 43.1514 43.4657C40.415 42.0161 39.1503 39.346 35.4886 40.4643C34.5004 40.7568 33.5337 41.1853 32.5484 41.4801C32.0992 41.2224 31.9752 41.1537 31.7409 40.5762C30.9077 38.5215 34.3223 37.8612 35.6638 37.5263Z" fill="#003075"/>
<path d="M35.7748 28.0668C41.1176 27.6431 40.6282 29.7138 44.4382 31.5603C47.8912 33.2336 53.4967 25.2441 58.2172 28.8504C59.264 29.6501 61.6278 31.5768 62.6942 31.8631C65.6749 32.6641 69.3377 27.5557 72.1872 28.5253C72.7679 29.1403 72.574 28.7844 72.7796 29.6403C72.3252 31.0197 70.4992 31.2717 69.2097 32.1976C59.8068 39.7603 58.6658 25.7583 49.8052 32.9286C44.7083 37.0536 41.6245 31.6588 37.1355 30.3556C35.3374 30.7026 34.0651 31.6628 32.5434 31.8203C31.7755 31.4974 32.0824 31.7547 31.615 30.9889C31.5008 28.9048 34.2323 28.4735 35.7748 28.0668Z" fill="#003075"/>
</g>
</svg>
