<svg width="67" height="46" viewBox="0 0 67 46" fill="none" xmlns="http://www.w3.org/2000/svg">
<g opacity="0.6">
<path d="M31.9086 0.00268112C44.7518 -0.133163 54.7681 4.90045 63.9789 13.4229C65.0708 14.4332 66.4286 15.4505 67.0006 16.8326C67.0113 17.7082 66.4645 18.4045 65.8511 19.0096C58.062 26.6952 46.7096 33.588 35.5536 33.8915C23.5377 34.098 15.5557 30.4306 6.07035 23.3286C5.02615 22.5469 0.389799 18.6118 0.00833376 17.2797C-0.0756911 16.7336 0.495121 15.8712 0.845027 15.5188C9.13075 7.16476 19.8051 0.643476 31.9086 0.00268112Z" fill="#003075"/>
<path d="M31.0818 2.51169C41.6339 0.859445 57.6818 9.20998 64.0871 17.0971C57.5627 24.0674 46.2935 30.4416 36.6642 31.3405C23.9488 32.8608 11.6993 25.5108 2.95324 17.1017C10.1672 9.51192 20.4856 3.65628 31.0818 2.51169Z" fill="white"/>
<path d="M32.2384 4.86354C38.9785 3.95805 45.1786 8.62681 46.0508 15.2649C46.9234 21.9026 42.134 27.9694 35.3816 28.7806C28.6963 29.584 22.6047 24.9292 21.7412 18.3575C20.8777 11.7857 25.5653 5.75973 32.2384 4.86354Z" fill="#003075"/>
<path d="M22.3891 43.8685C30.5688 43.8437 38.7487 43.86 46.928 43.9171C48.8964 43.9376 55.7675 43.4734 57.0677 44.507C57.3261 45.1684 57.2946 44.8268 57.0812 45.5701C56.9506 45.6764 56.82 45.7832 56.6894 45.8899C53.9675 46.0137 47.0881 45.9497 44.836 45.9462L13.1373 45.9978C12.135 45.99 11.0738 46.0044 10.3531 45.2867C10.2304 44.6215 10.185 44.9335 10.5156 44.3219C11.5886 43.6019 20.4933 43.867 22.3891 43.8685Z" fill="#003075"/>
</g>
</svg>
