<svg width="30" height="12" viewBox="0 0 30 12" fill="none" xmlns="http://www.w3.org/2000/svg">
<path d="M25.7036 11.1428H4.34745C3.75218 11.1184 3.16742 10.9772 2.62685 10.7271C2.08617 10.477 1.60029 10.1228 1.1968 9.68491C0.793416 9.24715 0.480497 8.73415 0.275807 8.17535C0.0711175 7.61655 -0.0211894 7.02291 0.00407948 6.42857V1.28571C0.00407948 0.944757 0.139771 0.617762 0.381267 0.376611C0.622764 0.135461 0.950221 0 1.29164 0C1.63317 0 1.96063 0.135461 2.20213 0.376611C2.44363 0.617762 2.5792 0.944757 2.5792 1.28571V6.42857C2.53489 6.93752 2.68847 7.44406 3.00808 7.84305C3.32781 8.24193 3.78888 8.50281 4.29598 8.57135H25.7036C26.2107 8.50281 26.6718 8.24193 26.9915 7.84305C27.3111 7.44406 27.4647 6.93752 27.4204 6.42857V1.28571C27.4204 0.944757 27.556 0.617762 27.7974 0.376611C28.0389 0.135461 28.3664 0 28.7079 0C29.0494 0 29.3769 0.135461 29.6183 0.376611C29.8598 0.617762 29.9955 0.944757 29.9955 1.28571V6.42857C30.0468 7.62059 29.6248 8.78469 28.821 9.66749C28.0173 10.5504 26.8969 11.0806 25.7036 11.1428Z" fill="white"/>
</svg>
