<svg width="62" height="86" viewBox="0 0 62 86" fill="none" xmlns="http://www.w3.org/2000/svg">
<g clip-path="url(#clip0_212_306)">
<path d="M31 40.85C28.0637 40.85 25.2476 39.7176 23.1713 37.7015C21.095 35.6854 19.9286 32.9512 19.9286 30.1C19.9286 27.2489 21.095 24.5146 23.1713 22.4986C25.2476 20.4826 28.0637 19.35 31 19.35C33.9363 19.35 36.7524 20.4826 38.8287 22.4986C40.9051 24.5146 42.0713 27.2489 42.0713 30.1C42.0713 31.5116 41.7852 32.9097 41.2288 34.2139C40.6723 35.518 39.8567 36.7033 38.8287 37.7015C37.8005 38.6997 36.58 39.4915 35.2368 40.0318C33.8935 40.572 32.4539 40.85 31 40.85ZM31 0C22.7783 0 14.8933 3.17125 9.07968 8.81607C3.26607 14.4609 0 22.117 0 30.1C0 52.675 31 86 31 86C31 86 62 52.675 62 30.1C62 22.117 58.7338 14.4609 52.9204 8.81607C47.1067 3.17125 39.2218 0 31 0Z" fill="#003075"/>
</g>
<defs>
<clipPath id="clip0_212_306">
<rect width="62" height="86" fill="white"/>
</clipPath>
</defs>
</svg>
