<svg width="42" height="42" viewBox="0 0 42 42" fill="none" xmlns="http://www.w3.org/2000/svg">
<g opacity="0.6" clip-path="url(#clip0_212_185)">
<path d="M37.8 0H4.2C1.89 0 0 1.89 0 4.2V37.8C0 38.9139 0.442499 39.9822 1.23015 40.7698C2.0178 41.5575 3.08608 42 4.2 42H37.8C40.131 42 42 40.131 42 37.8V4.2C42 3.08608 41.5575 2.0178 40.7698 1.23015C39.9822 0.442499 38.9139 0 37.8 0ZM4.2 8.4L8.4 4.2H18.69L4.2 18.69V8.4ZM4.2 24.57L24.57 4.2H34.86L4.2 34.86V24.57ZM37.8 33.6L33.6 37.8H23.31L37.8 23.31V33.6ZM37.8 17.43L17.43 37.8H7.14L37.8 7.14V17.43Z" fill="#003075"/>
</g>
<defs>
<clipPath id="clip0_212_185">
<rect width="42" height="42" fill="white"/>
</clipPath>
</defs>
</svg>
