<svg width="46" height="33" viewBox="0 0 46 33" fill="none" xmlns="http://www.w3.org/2000/svg">
<g opacity="0.6" clip-path="url(#clip0_212_181)">
<path d="M43.7 13.6243V7.07142C43.7 3.18214 40.595 0 36.8 0H27.6C25.829 0 24.219 0.707144 23 1.83858C21.781 0.707144 20.171 0 18.4 0H9.2C5.405 0 2.3 3.18214 2.3 7.07142V13.6243C0.897 14.9207 0 16.7828 0 18.8572V33H4.6V28.2858H41.4V33H46V18.8572C46 16.7828 45.103 14.9207 43.7 13.6243ZM27.6 4.71428H36.8C38.065 4.71428 39.1 5.775 39.1 7.07142V11.7857H25.3V7.07142C25.3 5.775 26.335 4.71428 27.6 4.71428ZM6.9 7.07142C6.9 5.775 7.935 4.71428 9.2 4.71428H18.4C19.665 4.71428 20.7 5.775 20.7 7.07142V11.7857H6.9V7.07142ZM4.6 23.5714V18.8572C4.6 17.5608 5.635 16.5 6.9 16.5H39.1C40.365 16.5 41.4 17.5608 41.4 18.8572V23.5714H4.6Z" fill="#003075"/>
</g>
<defs>
<clipPath id="clip0_212_181">
<rect width="46" height="33" fill="white"/>
</clipPath>
</defs>
</svg>
