<svg width="49" height="42" viewBox="0 0 49 42" fill="none" xmlns="http://www.w3.org/2000/svg">
<g opacity="0.6">
<path d="M0 26.9366V23.6516C0 23.0296 0.504242 22.5254 1.12626 22.5254H14.2659V28.0628H1.12626C0.504243 28.0628 0 27.5586 0 26.9366Z" fill="#003075"/>
<path d="M14.0332 15.5791V12.2942C14.0332 11.6722 14.5374 11.168 15.1595 11.168H28.2991V16.7054H15.1595C14.5374 16.7054 14.0332 16.2012 14.0332 15.5791Z" fill="#003075"/>
<path d="M28.2969 4.41117V1.12626C28.2969 0.504242 28.8011 0 29.4231 0H46.974C47.596 0 48.1002 0.504242 48.1002 1.12626V5.53743H29.4231C28.8011 5.53743 28.2969 5.03319 28.2969 4.41117Z" fill="#003075"/>
<path d="M2.9082 40.8742V30.9256H17.0803V19.6161H31.1116V8.35352H48.1462V17.5919C48.1462 18.2779 47.8336 18.9265 47.297 19.3539L19.5821 41.4281C19.1168 41.7987 18.5396 42.0004 17.9449 42.0004H4.03446C3.41245 42.0004 2.9082 41.4962 2.9082 40.8742Z" fill="#003075"/>
</g>
</svg>
