<svg width="47" height="38" viewBox="0 0 47 38" fill="none" xmlns="http://www.w3.org/2000/svg">
<path d="M33.6402 18.2754C34.1992 16.3714 34.8717 14.5023 35.5967 12.6506C35.9024 11.8733 36.1993 11.0785 36.5749 10.3361C37.0902 9.32289 37.1339 8.20492 37.4134 7.13935C38.3305 3.55834 40.5926 1.22631 44.0863 0.0734041C44.2348 0.0297332 44.4269 -0.0576085 44.5317 0.0559358C44.654 0.178214 44.5492 0.370366 44.5143 0.536315C43.8155 3.72429 41.8853 6.05631 39.3436 7.96036C39.2825 8.00403 39.2301 8.0477 39.169 8.08264C37.9374 8.75517 37.2998 9.83821 36.9068 11.1396C36.6535 11.9781 36.2954 12.7816 35.9548 13.655C36.1906 13.6288 36.243 13.4629 36.3304 13.3581C37.4833 11.9169 38.6973 10.5544 40.2869 9.56745C42.0774 8.45821 43.9815 7.82935 46.1126 8.0215C46.2698 8.03897 46.4271 8.06517 46.5755 8.09137C47.0472 8.17872 47.1258 8.40872 46.8114 8.78137C45.0471 10.8863 42.8024 12.275 40.2345 13.2009C39.2301 13.559 38.1733 13.7337 37.2038 14.1878C36.8981 14.3276 36.6011 14.5023 36.3042 14.6682C35.5705 15.0787 35.1949 15.725 34.9853 16.5199C34.5486 18.2143 34.0857 19.8912 33.6315 21.5769C33.6315 21.5944 33.649 21.6293 33.6577 21.6643C33.8848 21.6643 33.9023 21.4547 33.9809 21.3324C35.3783 19.1488 37.0553 17.2448 39.3786 15.9871C41.0468 15.0874 42.8111 14.6682 44.6977 14.7119C44.7588 14.7119 44.8112 14.7119 44.8724 14.7206C45.2829 14.773 45.3178 14.8342 45.0907 15.1835C43.9466 16.9653 42.4006 18.3278 40.645 19.4807C39.1864 20.4328 37.5531 20.9655 35.9548 21.6031C35.3871 21.8302 34.8368 22.101 34.3302 22.4416C33.7363 22.8347 33.3258 23.3412 33.1599 24.0487C32.7581 25.7606 32.3388 27.4638 31.9283 29.1844C32.1642 29.1844 32.1904 29.001 32.269 28.8874C33.2909 27.324 34.3652 25.8043 35.8325 24.6077C37.4483 23.2801 39.2738 22.4242 41.3612 22.1621C42.0949 22.066 42.8024 22.1185 43.5273 22.1971C43.9378 22.2407 43.8854 22.3717 43.7107 22.6425C42.4181 24.6252 40.7236 26.1624 38.6536 27.3153C37.1688 28.145 35.5617 28.6603 33.9809 29.2543C33.745 29.3416 33.5092 29.4552 33.2734 29.5512C32.1292 30.0054 31.4305 30.8002 31.0986 32.023C30.6793 33.5428 29.9981 34.9752 29.2644 36.3726C29.1683 36.5473 29.0635 36.6521 28.8452 36.6783C28.2862 36.7395 27.7359 36.8268 27.0721 36.9141C27.7185 35.9883 28.3036 35.1673 28.8015 34.3026C30.0155 32.2152 30.9239 30.0054 31.448 27.6385C31.5964 26.9659 31.4217 26.3458 31.0636 25.7693C30.4261 24.73 29.6312 23.8216 28.8714 22.8871C27.5874 21.3149 26.8363 19.5244 26.5568 17.5155C26.4607 16.8255 26.3996 16.1355 26.3035 15.4455C26.2424 14.9914 26.452 15.0263 26.7228 15.1049C27.57 15.3495 28.3211 15.7687 28.9674 16.3714C30.6007 17.8999 31.5353 19.7777 31.7711 22.0049C31.8847 23.0879 31.8934 24.1623 31.7711 25.2366C31.7449 25.42 31.7187 25.6296 31.841 25.8742C32.103 25.4636 32.1205 25.0357 32.2166 24.6339C32.5397 23.2626 32.8018 21.8826 33.1336 20.5201C33.3258 19.7253 33.221 18.9916 32.9153 18.2405C32.1729 16.4063 31.4654 14.5547 31.2995 12.5633C31.1073 10.3535 31.4043 8.22239 32.6009 6.29213C32.8978 5.82049 32.9415 5.82922 33.2297 6.31834C33.7974 7.3053 34.0595 8.39707 34.2254 9.51504C34.435 10.93 34.435 12.3537 34.3215 13.7686C34.2254 14.9302 33.9721 16.0657 33.6839 17.1924C33.5966 17.5505 33.518 17.8999 33.6577 18.2754H33.6402Z" fill="white"/>
<path d="M18.7396 5.7071C22.7661 5.7071 26.8013 5.7071 30.8277 5.7071C31.3343 5.7071 31.3343 5.7071 31.0897 6.13508C30.8277 6.58925 30.5919 7.06963 30.4434 7.56748C30.3299 7.92558 30.1377 8.00419 29.7971 8.00419C25.7095 7.98672 21.6219 7.96925 17.543 7.96925C14.1542 7.96925 10.7653 7.96925 7.37645 8.04786C4.55532 8.109 2.60759 10.0567 2.54646 12.808C2.51152 14.4849 2.9919 15.9086 4.49418 16.8082C5.7519 17.5681 7.11443 17.7603 8.48569 17.1227C10.3635 16.258 10.8439 13.5155 9.37658 12.1879C8.52937 11.4193 7.11443 11.4717 6.42443 12.2927C6.02266 12.7731 5.97899 13.4194 6.32835 13.8212C6.67772 14.2229 7.00962 14.1705 7.20177 13.6989C7.35025 13.3408 7.71709 13.1399 8.10139 13.2098C8.52063 13.2884 8.83506 13.6727 8.85253 14.1268C8.87873 14.7994 8.31101 15.5243 7.57734 15.7776C6.00519 16.3104 4.3457 15.2011 4.18848 13.5155C3.99633 11.4979 5.27152 9.95191 7.27164 9.59381C9.49012 9.20077 11.2108 10.3275 11.9008 11.69C13.0275 13.8998 12.5995 17.7253 9.42025 19.018C6.86114 20.0574 4.41557 19.7342 2.22329 18.0572C0.948101 17.0703 0.397848 15.6117 0.127089 14.0657C-0.239746 11.9957 0.188228 10.0655 1.40228 8.36229C2.48532 6.84255 3.98759 5.96913 5.87418 5.76824C7.28038 5.61976 8.68658 5.69837 10.1015 5.68963C12.9925 5.67217 15.8835 5.68963 18.7746 5.68963L18.7396 5.7071Z" fill="white"/>
<path d="M12.7917 28.3722C12.7917 25.3502 12.7917 22.3369 12.7829 19.3149C12.7829 18.9218 12.8878 18.8083 13.2808 18.8083C17.1937 18.8083 21.1153 18.7995 25.0283 18.7733C25.3165 18.7733 25.43 18.8519 25.5348 19.1402C25.989 20.3542 26.12 21.6032 26.0851 22.9046C26.024 24.73 26.0589 26.5468 26.0589 28.3722C26.0589 28.6517 25.989 28.8438 25.7445 29.0098C25.1156 29.429 24.5129 29.8832 23.8928 30.3112C23.7967 30.3811 23.6919 30.5383 23.5697 30.4684C23.4212 30.3898 23.4998 30.2064 23.4998 30.0754C23.4998 27.9966 23.4998 25.9179 23.4998 23.8392C23.4998 23.1666 23.4998 22.5028 23.4998 21.8303C23.491 20.9394 22.9059 20.3018 22.1198 20.3018C21.29 20.3018 20.6961 20.9481 20.6961 21.839C20.6961 25.2541 20.6961 28.6779 20.6961 32.093C20.6961 32.4161 20.6088 32.617 20.338 32.8004C19.6742 33.2459 19.0279 33.7088 18.3728 34.163C18.2942 34.2154 18.2331 34.3376 18.1195 34.2678C18.0147 34.2066 18.0584 34.0843 18.0584 33.997C18.0584 33.2546 18.0584 32.5122 18.0584 31.7785C18.0584 28.5207 18.0584 25.2541 18.0409 21.9963C18.0409 20.9219 17.3859 20.2319 16.4513 20.3106C15.6914 20.3717 15.1936 20.9744 15.1848 21.8565C15.1848 23.1666 15.1848 24.4768 15.1848 25.7869C15.1848 29.0884 15.1848 32.3987 15.1936 35.7002C15.1936 36.0932 15.0975 36.3552 14.7481 36.5736C14.1979 36.923 13.6738 37.3247 13.141 37.6916C13.0537 37.7527 12.9751 37.8837 12.8528 37.8226C12.7305 37.7614 12.7917 37.613 12.7917 37.5081C12.7917 34.818 12.7917 32.1279 12.7917 29.4378C12.7917 29.0797 12.7917 28.7216 12.7917 28.3722Z" fill="white"/>
<path d="M18.4948 1.21746C23.6217 1.21746 28.7487 1.21746 33.8756 1.21746C33.9717 1.21746 34.0765 1.21746 34.1726 1.21746C34.4084 1.21746 34.4084 1.3048 34.2774 1.47075C33.6311 2.24809 33.0634 3.08657 32.6179 3.99492C32.4956 4.24822 32.2948 4.23075 32.0764 4.23075C29.1417 4.23075 26.207 4.23075 23.2811 4.23075C17.3593 4.23075 11.4375 4.23075 5.50705 4.23075C5.18388 4.23075 4.93932 4.18708 4.77338 3.87265C4.58996 3.53201 4.24059 3.3748 3.90869 3.20885C3.27983 2.91189 2.82565 2.44024 2.6073 1.76771C2.45882 1.29607 2.51122 1.21746 3.00034 1.21746C8.17097 1.21746 13.3416 1.21746 18.5035 1.21746H18.4948Z" fill="white"/>
<path d="M12.4165 10.0569C12.5999 9.9259 12.7484 9.96957 12.8794 9.96957C18.3907 9.96957 23.8932 9.96957 29.4045 9.96084C29.7538 9.96084 29.8848 10.0394 29.8412 10.4063C29.7276 11.402 29.78 12.3977 29.7888 13.3934C29.7888 13.6903 29.7014 13.7777 29.4045 13.7777C24.3561 13.7777 19.299 13.7951 14.2507 13.8126C13.9624 13.8126 13.8576 13.7427 13.8402 13.437C13.779 12.1531 13.4471 10.974 12.4165 10.0482V10.0569Z" fill="white"/>
<path d="M18.958 17.6992C17.0627 17.6992 15.1761 17.6992 13.2808 17.6992C13.1585 17.6992 13.0013 17.7603 12.9227 17.638C12.8354 17.507 13.0013 17.4109 13.0625 17.3149C13.3158 16.8869 13.5079 16.424 13.6302 15.9436C13.6913 15.7078 13.7874 15.6117 14.032 15.6117C17.5344 15.6117 21.0368 15.6117 24.5304 15.6117C24.7575 15.6117 24.8449 15.6903 24.8711 15.9261C24.9147 16.3803 24.9497 16.8345 25.0807 17.2712C25.1768 17.5944 25.0982 17.7254 24.7226 17.7166C22.8011 17.6992 20.8796 17.7166 18.958 17.7166V17.6992Z" fill="white"/>
</svg>
