<svg width="27" height="26" viewBox="0 0 27 26" fill="none" xmlns="http://www.w3.org/2000/svg">
<path d="M21.7124 25.9895C20.3574 25.9895 19.0355 25.9895 17.6805 25.9895C17.284 25.9895 16.7552 26.1183 16.6891 25.4743C16.623 24.9912 16.8874 24.6692 17.3831 24.5726C18.7711 24.3472 18.7381 23.4777 18.3745 22.4473C17.3831 19.6779 15.3782 18.2932 12.3599 18.2932C11.9302 18.2932 11.5006 18.261 11.071 18.2932C9.91432 18.4542 8.36108 17.6813 7.70012 18.6474C6.80783 19.9677 6.47736 21.6422 6.04774 23.1879C5.8825 23.8319 6.31212 24.4116 7.10526 24.476C7.66707 24.5404 7.99755 24.8302 7.93146 25.4098C7.86536 25.9895 7.36964 25.9251 6.94002 25.9251C4.95716 25.9251 2.97429 25.9251 0.958381 25.9251C0.52876 25.9251 0.0660955 25.9251 0 25.3454C0 24.9268 0.165233 24.6048 0.594854 24.5404C2.34638 24.2828 2.8421 22.8981 3.37086 21.5778C5.91554 14.9764 8.46022 8.37493 11.0049 1.74129C11.3354 0.839634 11.6328 0.0345785 12.9217 0.00237637C13.9792 -0.0298257 14.4088 0.25999 14.8054 1.19385C17.5483 7.9563 20.3904 14.6543 23.1995 21.4168C23.8274 22.8981 24.3892 24.3794 26.339 24.637C26.7356 24.7014 27 24.9912 27 25.4098C27 26.0217 26.4712 25.9573 26.0416 25.9573C24.5875 25.9573 23.1334 25.9573 21.6793 25.9573L21.7124 25.9895ZM11.765 6.4428C10.7405 9.4698 9.78213 12.2392 8.82375 15.0086C8.59241 15.6526 8.6585 16.039 9.45165 16.039C11.1701 16.039 12.8886 16.039 14.6071 16.039C15.4002 16.039 15.4994 15.7492 15.235 15.073C14.0783 12.2714 12.9547 9.4698 11.7319 6.4428H11.765Z" fill="white"/>
</svg>
