<svg width="25" height="27" viewBox="0 0 25 27" fill="none" xmlns="http://www.w3.org/2000/svg">
<path d="M24.3494 5.05167C24.3494 5.87921 24.3494 6.70676 24.3494 7.53431C24.3494 8.01174 24.1857 8.36186 23.662 8.42552C23.1382 8.48918 22.8108 8.20271 22.7454 7.75711C22.3525 4.92435 20.6176 3.30108 17.8351 2.72817C14.5288 1.9961 11.4844 2.60084 8.8983 4.86069C7.06512 6.45213 6.08306 8.521 5.78844 10.8445C5.39562 13.9319 5.62477 16.9556 7.26154 19.7566C10.4041 25.1993 17.0821 26.0587 22.2543 21.6981C22.6472 21.348 23.0072 20.9342 23.4001 20.6159C23.7274 20.3613 23.9566 19.6611 24.5131 20.1703C24.9714 20.5841 25.2005 21.1252 24.775 21.6981C24.2512 22.3347 23.7274 23.0349 23.1055 23.576C15.6418 30.2282 3.59517 26.4406 0.747188 18.6107C-2.00258 11.0673 3.13687 2.15525 11.2552 0.404666C15.4781 -0.518369 19.5046 0.277343 23.531 1.39135C24.153 1.58232 24.3494 1.96428 24.3167 2.56902C24.3167 3.39657 24.3167 4.22412 24.3167 5.05167H24.3494Z" fill="white"/>
</svg>
