<svg width="24" height="27" viewBox="0 0 24 27" fill="none" xmlns="http://www.w3.org/2000/svg">
<path d="M7.31459 0.132344C9.34762 0.401047 11.7034 -0.27071 14.0591 0.132344C17.2861 0.703338 19.6419 2.4499 20.1905 4.96899C20.965 8.52931 19.771 11.6194 16.8344 13.6347C15.4145 14.5975 15.1886 15.8291 16.1567 17.3293C17.3184 19.1095 18.4479 20.8896 19.6419 22.6026C20.5454 23.879 21.4813 25.1553 23.1593 25.424C23.5789 25.4912 24.0306 25.6927 23.9984 26.2301C23.9661 26.9355 23.353 26.8011 22.9012 26.8683C18.6415 27.5065 15.5758 25.8271 13.6073 21.7965C12.736 19.9828 11.542 18.3706 10.6384 16.5904C10.0576 15.4484 9.21854 15.3141 8.15362 15.3812C7.54049 15.4148 7.34686 15.6835 7.34686 16.3217C7.34686 18.74 7.34686 21.1248 7.34686 23.5431C7.34686 24.5507 7.86319 25.1889 8.8313 25.3568C9.34762 25.4576 9.79941 25.6591 9.73487 26.2973C9.67033 27.0362 9.05719 26.8347 8.63768 26.8347C6.12059 26.8347 3.6035 26.8347 1.05414 26.8347C0.666897 26.8347 0.150574 26.9691 0.0537624 26.3309C-0.0107783 25.7935 0.344193 25.5248 0.763708 25.424C1.95771 25.1553 2.24815 24.2484 2.4095 23.14C2.76447 20.5874 2.53858 18.0011 2.53858 15.4484C2.57085 11.9889 2.53858 8.5629 2.47404 5.10335C2.44177 3.59189 2.47404 1.9125 0.441009 1.61021C0.0214948 1.54303 -0.0430494 1.0728 0.0214914 0.66975C0.118302 0.165931 0.537818 0.199509 0.892792 0.199509C2.89355 0.199509 4.89431 0.199509 7.21778 0.199509L7.31459 0.132344ZM7.37913 7.52167C7.37913 8.29419 7.37913 9.03312 7.37913 9.80564C7.37913 12.0896 8.49784 13.1644 10.7352 13.0301C13.446 12.8622 15.2854 10.8469 15.5113 7.75678C15.7372 5.00257 14.2527 2.78578 11.6711 2.24837C10.5739 2.01326 9.3799 2.14761 8.21816 2.08043C7.47595 2.04685 7.34686 2.48349 7.34686 3.12166C7.34686 4.59953 7.34686 6.07739 7.34686 7.52167H7.37913Z" fill="white"/>
</svg>
