<svg width="23" height="20" viewBox="0 0 23 20" fill="none" xmlns="http://www.w3.org/2000/svg">
<path fill-rule="evenodd" clip-rule="evenodd" d="M5.84788 0.929014C5.42371 0.0455998 4.97738 0.0277057 4.57445 0.0124097L3.48971 0C3.11232 0 2.49916 0.132757 1.98079 0.663787C1.46243 1.19482 0 2.47824 0 5.08865C0 7.69907 2.02789 10.2215 2.31046 10.5759C2.59304 10.9303 6.22526 16.4579 11.9774 18.5846C16.7575 20.352 17.7302 20.0005 18.7681 19.9122C19.8061 19.8239 22.1162 18.6288 22.5875 17.3898C23.0588 16.1508 23.0591 15.0893 22.9178 14.8674C22.7765 14.6455 22.3991 14.5136 21.8327 14.2481C21.2664 13.9825 18.4846 12.6991 17.966 12.5219C17.4473 12.3447 17.0702 12.2567 16.6925 12.7877C16.3148 13.3187 15.2316 14.5133 14.9014 14.8674C14.5711 15.2215 14.2414 15.266 13.675 15.0007C13.1086 14.7355 11.2864 14.175 9.12427 12.3675C7.44206 10.9611 6.30653 9.22434 5.97593 8.6936C5.64534 8.16285 5.94084 7.8754 6.22465 7.61104C6.4786 7.37323 6.79041 6.99141 7.07391 6.68174C7.35741 6.37207 7.45068 6.15071 7.63906 5.79717C7.82744 5.44363 7.73356 5.1331 7.59197 4.86787C7.45037 4.60264 6.35085 1.97838 5.84788 0.929014Z" fill="#F7F4EE"/>
</svg>
