<svg width="54" height="54" viewBox="0 0 54 54" fill="none" xmlns="http://www.w3.org/2000/svg">
<path fill-rule="evenodd" clip-rule="evenodd" d="M42.75 45C41.5057 45 40.5 43.9943 40.5 42.75C40.5 41.5057 41.5057 40.5 42.75 40.5C43.9943 40.5 45 41.5057 45 42.75C45 43.9943 43.9943 45 42.75 45ZM42.75 36C39.0285 36 36 39.0285 36 42.75C36 46.4715 39.0285 49.5 42.75 49.5C46.4715 49.5 49.5 46.4715 49.5 42.75C49.5 39.0285 46.4715 36 42.75 36ZM27 45C25.7558 45 24.75 43.9943 24.75 42.75C24.75 41.5057 25.7558 40.5 27 40.5C28.2442 40.5 29.25 41.5057 29.25 42.75C29.25 43.9943 28.2442 45 27 45ZM27 36C23.2785 36 20.25 39.0285 20.25 42.75C20.25 46.4715 23.2785 49.5 27 49.5C30.7215 49.5 33.75 46.4715 33.75 42.75C33.75 39.0285 30.7215 36 27 36ZM11.25 45C10.0058 45 9 43.9943 9 42.75C9 41.5057 10.0058 40.5 11.25 40.5C12.4942 40.5 13.5 41.5057 13.5 42.75C13.5 43.9943 12.4942 45 11.25 45ZM11.25 36C7.5285 36 4.5 39.0285 4.5 42.75C4.5 46.4715 7.5285 49.5 11.25 49.5C14.9715 49.5 18 46.4715 18 42.75C18 39.0285 14.9715 36 11.25 36ZM42.75 29.25C41.5057 29.25 40.5 28.2442 40.5 27C40.5 25.7558 41.5057 24.75 42.75 24.75C43.9943 24.75 45 25.7558 45 27C45 28.2442 43.9943 29.25 42.75 29.25ZM42.75 20.25C39.0285 20.25 36 23.2785 36 27C36 30.7215 39.0285 33.75 42.75 33.75C46.4715 33.75 49.5 30.7215 49.5 27C49.5 23.2785 46.4715 20.25 42.75 20.25ZM27 29.25C25.7558 29.25 24.75 28.2442 24.75 27C24.75 25.7558 25.7558 24.75 27 24.75C28.2442 24.75 29.25 25.7558 29.25 27C29.25 28.2442 28.2442 29.25 27 29.25ZM27 20.25C23.2785 20.25 20.25 23.2785 20.25 27C20.25 30.7215 23.2785 33.75 27 33.75C30.7215 33.75 33.75 30.7215 33.75 27C33.75 23.2785 30.7215 20.25 27 20.25ZM11.25 29.25C10.0058 29.25 9 28.2442 9 27C9 25.7558 10.0058 24.75 11.25 24.75C12.4942 24.75 13.5 25.7558 13.5 27C13.5 28.2442 12.4942 29.25 11.25 29.25ZM11.25 20.25C7.5285 20.25 4.5 23.2785 4.5 27C4.5 30.7215 7.5285 33.75 11.25 33.75C14.9715 33.75 18 30.7215 18 27C18 23.2785 14.9715 20.25 11.25 20.25ZM42.75 9C43.9943 9 45 10.0058 45 11.25C45 12.4942 43.9943 13.5 42.75 13.5C41.5057 13.5 40.5 12.4942 40.5 11.25C40.5 10.0058 41.5057 9 42.75 9ZM42.75 18C46.4715 18 49.5 14.9715 49.5 11.25C49.5 7.5285 46.4715 4.5 42.75 4.5C39.0285 4.5 36 7.5285 36 11.25C36 14.9715 39.0285 18 42.75 18ZM27 13.5C25.7558 13.5 24.75 12.492 24.75 11.25C24.75 10.0058 25.7558 9 27 9C28.2442 9 29.25 10.0058 29.25 11.25C29.25 12.492 28.2442 13.5 27 13.5ZM27 4.5C23.2785 4.5 20.25 7.5285 20.25 11.25C20.25 14.9715 23.2785 18 27 18C30.7215 18 33.75 14.9715 33.75 11.25C33.75 7.5285 30.7215 4.5 27 4.5ZM11.25 13.5C10.0058 13.5 9 12.4942 9 11.25C9 10.0058 10.0058 9 11.25 9C12.4942 9 13.5 10.0058 13.5 11.25C13.5 12.4942 12.4942 13.5 11.25 13.5ZM11.25 4.5C7.5285 4.5 4.5 7.5285 4.5 11.25C4.5 14.9715 7.5285 18 11.25 18C14.9715 18 18 14.9715 18 11.25C18 7.5285 14.9715 4.5 11.25 4.5Z" fill="#003075"/>
<mask id="mask0_188_917" style="mask-type:luminance" maskUnits="userSpaceOnUse" x="4" y="4" width="46" height="46">
<path fill-rule="evenodd" clip-rule="evenodd" d="M42.75 45C41.5057 45 40.5 43.9943 40.5 42.75C40.5 41.5057 41.5057 40.5 42.75 40.5C43.9943 40.5 45 41.5057 45 42.75C45 43.9943 43.9943 45 42.75 45ZM42.75 36C39.0285 36 36 39.0285 36 42.75C36 46.4715 39.0285 49.5 42.75 49.5C46.4715 49.5 49.5 46.4715 49.5 42.75C49.5 39.0285 46.4715 36 42.75 36ZM27 45C25.7558 45 24.75 43.9943 24.75 42.75C24.75 41.5057 25.7558 40.5 27 40.5C28.2442 40.5 29.25 41.5057 29.25 42.75C29.25 43.9943 28.2442 45 27 45ZM27 36C23.2785 36 20.25 39.0285 20.25 42.75C20.25 46.4715 23.2785 49.5 27 49.5C30.7215 49.5 33.75 46.4715 33.75 42.75C33.75 39.0285 30.7215 36 27 36ZM11.25 45C10.0058 45 9 43.9943 9 42.75C9 41.5057 10.0058 40.5 11.25 40.5C12.4942 40.5 13.5 41.5057 13.5 42.75C13.5 43.9943 12.4942 45 11.25 45ZM11.25 36C7.5285 36 4.5 39.0285 4.5 42.75C4.5 46.4715 7.5285 49.5 11.25 49.5C14.9715 49.5 18 46.4715 18 42.75C18 39.0285 14.9715 36 11.25 36ZM42.75 29.25C41.5057 29.25 40.5 28.2442 40.5 27C40.5 25.7558 41.5057 24.75 42.75 24.75C43.9943 24.75 45 25.7558 45 27C45 28.2442 43.9943 29.25 42.75 29.25ZM42.75 20.25C39.0285 20.25 36 23.2785 36 27C36 30.7215 39.0285 33.75 42.75 33.75C46.4715 33.75 49.5 30.7215 49.5 27C49.5 23.2785 46.4715 20.25 42.75 20.25ZM27 29.25C25.7558 29.25 24.75 28.2442 24.75 27C24.75 25.7558 25.7558 24.75 27 24.75C28.2442 24.75 29.25 25.7558 29.25 27C29.25 28.2442 28.2442 29.25 27 29.25ZM27 20.25C23.2785 20.25 20.25 23.2785 20.25 27C20.25 30.7215 23.2785 33.75 27 33.75C30.7215 33.75 33.75 30.7215 33.75 27C33.75 23.2785 30.7215 20.25 27 20.25ZM11.25 29.25C10.0058 29.25 9 28.2442 9 27C9 25.7558 10.0058 24.75 11.25 24.75C12.4942 24.75 13.5 25.7558 13.5 27C13.5 28.2442 12.4942 29.25 11.25 29.25ZM11.25 20.25C7.5285 20.25 4.5 23.2785 4.5 27C4.5 30.7215 7.5285 33.75 11.25 33.75C14.9715 33.75 18 30.7215 18 27C18 23.2785 14.9715 20.25 11.25 20.25ZM42.75 9C43.9943 9 45 10.0058 45 11.25C45 12.4942 43.9943 13.5 42.75 13.5C41.5057 13.5 40.5 12.4942 40.5 11.25C40.5 10.0058 41.5057 9 42.75 9ZM42.75 18C46.4715 18 49.5 14.9715 49.5 11.25C49.5 7.5285 46.4715 4.5 42.75 4.5C39.0285 4.5 36 7.5285 36 11.25C36 14.9715 39.0285 18 42.75 18ZM27 13.5C25.7558 13.5 24.75 12.492 24.75 11.25C24.75 10.0058 25.7558 9 27 9C28.2442 9 29.25 10.0058 29.25 11.25C29.25 12.492 28.2442 13.5 27 13.5ZM27 4.5C23.2785 4.5 20.25 7.5285 20.25 11.25C20.25 14.9715 23.2785 18 27 18C30.7215 18 33.75 14.9715 33.75 11.25C33.75 7.5285 30.7215 4.5 27 4.5ZM11.25 13.5C10.0058 13.5 9 12.4942 9 11.25C9 10.0058 10.0058 9 11.25 9C12.4942 9 13.5 10.0058 13.5 11.25C13.5 12.4942 12.4942 13.5 11.25 13.5ZM11.25 4.5C7.5285 4.5 4.5 7.5285 4.5 11.25C4.5 14.9715 7.5285 18 11.25 18C14.9715 18 18 14.9715 18 11.25C18 7.5285 14.9715 4.5 11.25 4.5Z" fill="white"/>
</mask>
<g mask="url(#mask0_188_917)">
<rect width="54" height="54" fill="#003075"/>
</g>
</svg>
