<svg width="37" height="45" viewBox="0 0 37 45" fill="none" xmlns="http://www.w3.org/2000/svg">
<path d="M18.5352 25.9612C15.9175 25.9612 13.3587 25.1999 11.1822 23.7736C9.00574 22.3473 7.30939 20.32 6.30766 17.9481C5.30594 15.5762 5.04385 12.9662 5.55452 10.4482C6.06519 7.93024 7.3257 5.61731 9.17664 3.80194C11.0276 1.98657 13.3858 0.750285 15.9531 0.249425C18.5205 -0.251435 21.1816 0.00562428 23.5999 0.988097C26.0183 1.97057 28.0853 3.63433 29.5396 5.76898C30.9939 7.90363 31.7701 10.4133 31.7701 12.9806C31.7701 14.6853 31.4278 16.3732 30.7626 17.9481C30.0975 19.523 29.1227 20.9539 27.8937 22.1593C26.6647 23.3647 25.2057 24.3208 23.5999 24.9732C21.9942 25.6255 20.2732 25.9612 18.5352 25.9612ZM18.5352 1.73075C16.2665 1.73075 14.0489 2.39055 12.1626 3.6267C10.2763 4.86285 8.80616 6.61984 7.938 8.67549C7.06984 10.7311 6.84269 12.9931 7.28527 15.1754C7.72786 17.3576 8.82029 19.3622 10.4244 20.9355C12.0286 22.5088 14.0724 23.5803 16.2974 24.0143C18.5224 24.4484 20.8287 24.2256 22.9246 23.3741C25.0206 22.5227 26.812 21.0807 28.0723 19.2307C29.3327 17.3807 30.0054 15.2056 30.0054 12.9806C30.0008 9.99838 28.7908 7.13959 26.6407 5.03082C24.4906 2.92205 21.5758 1.73533 18.5352 1.73075Z" fill="#003075"/>
<path d="M36.1819 45H0.888704C0.654696 45 0.430272 44.9088 0.264803 44.7465C0.0993345 44.5843 0.0063749 44.3641 0.0063749 44.1346V33.7501C-0.00212497 33.6696 -0.00212497 33.5884 0.0063749 33.5078C0.853411 30.6348 3.53569 28.6444 6.00622 26.8964C6.58855 26.4637 7.1356 26.0656 7.64735 25.6502C7.82299 25.5169 8.04272 25.4519 8.26424 25.4679C8.48577 25.4839 8.69345 25.5796 8.84732 25.7368C10.104 26.9889 11.6175 27.965 13.2876 28.6005C14.9577 29.236 16.7464 29.5164 18.5353 29.4233C20.3133 29.5132 22.0904 29.231 23.7486 28.5953C25.4068 27.9597 26.9081 26.9853 28.1527 25.7368C28.3066 25.5796 28.5142 25.4839 28.7358 25.4679C28.9573 25.4519 29.177 25.5169 29.3527 25.6502C29.8644 26.0656 30.4114 26.4637 30.9938 26.8791C33.4114 28.6098 36.1466 30.6348 36.9936 33.5078C37.0021 33.5884 37.0021 33.6696 36.9936 33.7501V44.1346C36.9943 44.3526 36.9111 44.5629 36.7606 44.7233C36.6101 44.8837 36.4035 44.9826 36.1819 45ZM1.77103 43.2693H35.2996L36.1819 44.4508C36.1819 44.4508 34.8103 45.6923 32.6751 44.1346L28.9291 43.2693C26.0915 45.7857 22.8458 44.3002 19.0239 44.1346C15.2035 44.2908 11.795 45.8616 8.95243 43.3532L6.84387 44.1346C4.69099 45.6923 2.97601 44.1346 2.97601 44.1346L1.77103 43.2693Z" fill="#003075"/>
<path d="M30.774 13.1706C30.774 19.8384 25.2628 25.2437 18.4644 25.2437C11.666 25.2437 6.1548 19.8384 6.1548 13.1706C6.1548 6.50284 11.666 1.09755 18.4644 1.09755C25.2628 1.09755 30.774 6.50284 30.774 13.1706Z" fill="#003075"/>
</svg>
