<svg width="95" height="91" viewBox="0 0 95 91" fill="none" xmlns="http://www.w3.org/2000/svg">
<path opacity="0.6" d="M47.13 7.7168L94.8638 54.7587C91.0539 54.7063 87.2183 54.8037 83.4106 54.6877L61.0809 32.3695C56.5219 27.8745 51.8551 23.4512 47.3899 18.8629L47.0698 18.8454L11.0658 54.7331C7.72093 54.8955 3.4181 54.7769 0 54.7821C7.16816 47.4753 14.3899 40.2209 21.664 33.0197C30.0756 24.5081 38.5645 16.0734 47.13 7.7168Z" fill="#003075"/>
<path opacity="0.6" d="M12.8549 55.255L19.1722 55.1836L19.1922 83.2853L76.7985 83.2589L76.7873 55.2494L83.6674 55.3141L83.6778 63.3149L83.6908 90.7661C75.7082 90.5267 66.9394 90.7118 58.8601 90.7122L12.2665 90.6991C12.2828 87.6439 12.1007 56.0587 12.3951 55.3568L12.8549 55.255Z" fill="#003075"/>
<path opacity="0.6" d="M18.2482 0.0492548L22.0258 0C21.8213 5.51796 22.0035 12.0479 22.0202 17.6414L26.8543 17.6028C22.9823 21.7011 18.4229 26.0627 14.3848 30.0421L12.4997 28.0258C9.00429 24.5118 5.47244 21.0339 1.90527 17.5924L6.82927 17.5916C6.74601 11.8215 6.83968 5.84787 6.83002 0.0501822L18.2482 0.0492548Z" fill="#003075"/>
<path opacity="0.6" d="M47.0986 41.4102C55.1068 41.4102 61.5986 47.902 61.5986 55.9102C61.5986 63.9183 55.1068 70.4102 47.0986 70.4102C39.0905 70.4102 32.5986 63.9183 32.5986 55.9102C32.5986 47.902 39.0905 41.4102 47.0986 41.4102ZM47.4189 48.4102C45.9923 48.4102 44.8122 48.8906 43.8789 49.8506C42.9456 50.7972 42.3458 52.1039 42.0791 53.7705H40.5986V55.0498H41.959C41.9457 55.1431 41.9385 55.3501 41.9385 55.6699V56.1104H40.5986V57.4102H42.0586C42.2986 59.1299 42.8852 60.4831 43.8184 61.4697C44.765 62.4431 45.9656 62.9297 47.4189 62.9297C48.4188 62.9296 49.2925 62.6899 50.0391 62.21C50.7855 61.7166 51.3517 61.0097 51.7383 60.0898L50.1982 59.21C49.6516 60.4765 48.7254 61.1103 47.4189 61.1104C46.4856 61.1104 45.7182 60.7904 45.1182 60.1504C44.5182 59.5104 44.1251 58.5968 43.9385 57.4102H48.6982V56.1104H43.7988V55.6699C43.7988 55.3501 43.805 55.1431 43.8184 55.0498H48.6982V53.7705H43.959C44.1723 52.6239 44.5716 51.7432 45.1582 51.1299C45.7582 50.5165 46.5123 50.21 47.4189 50.21C48.6988 50.2101 49.6188 50.8304 50.1787 52.0703L51.7188 51.1904C50.9055 49.3372 49.4721 48.4103 47.4189 48.4102Z" fill="#003075"/>
</svg>
