<svg width="135" height="73" viewBox="0 0 135 73" fill="none" xmlns="http://www.w3.org/2000/svg">
<path opacity="0.6" d="M49.5449 0C50.8305 0.967167 54.3356 4.56949 55.5811 5.80566C59.2844 9.55531 63.058 13.2354 66.8994 16.8438L66.8936 54.9404C58.3544 54.74 54.3606 56.7087 48.2363 62.3496C47.3798 63.194 46.4919 64.1593 45.6543 65.0352C40.8384 60.078 39.3276 58.0499 32.8076 55.6289L32.8906 16.4961C38.3939 10.9493 43.9454 5.45016 49.5449 0ZM41.3486 41.3789L41.3408 47.0967C42.7515 47.0939 44.2741 47.1219 45.6768 47.0752C45.7142 45.1742 45.7308 43.2731 45.7256 41.3721C44.2666 41.3612 42.8077 41.3632 41.3486 41.3789ZM54.0957 41.2988C54.0478 43.2069 54.0746 45.1203 54.0469 47.0332C55.4952 47.0392 56.9432 47.0536 58.3916 47.0762L58.4258 41.3096C56.9824 41.2878 55.5391 41.2839 54.0957 41.2988ZM54.2227 30.9258C54.1595 32.8001 54.2102 34.8519 54.2021 36.7451C55.6117 36.7351 57.0221 36.7355 58.4316 36.7451L58.4277 30.9404L54.2227 30.9258ZM45.5771 31.04C44.1678 31.0215 42.758 31.025 41.3486 31.0508C41.3289 32.9348 41.3252 34.8191 41.3369 36.7031L45.5938 36.709L45.5771 31.04ZM45.7266 20.5078C44.2848 20.4929 42.8421 20.5056 41.4004 20.5459C41.3734 22.506 41.365 24.4666 41.373 26.4268L45.7373 26.4365L45.7266 20.5078ZM58.4355 20.5234C57.0117 20.5033 55.5875 20.5094 54.1641 20.542V26.3477C55.5884 26.3295 57.0126 26.3282 58.4365 26.3447L58.4355 20.5234Z" fill="#003075"/>
<path opacity="0.6" d="M83.749 0.195312C84.8816 1.15164 86.4584 2.87203 87.6211 3.96191C91.8871 7.9591 95.9489 12.5749 100.303 16.4473C100.254 29.6998 100.33 42.9531 100.532 56.2041C94.8273 58.5692 90.9005 63.039 86.8369 67.5859L85.5605 66.1758C78.8288 59.1635 77.2425 56.7762 67.5039 54.9316L67.4941 16.6846C72.4778 11.1933 78.6699 5.71312 83.749 0.195312ZM88.2803 41.2549C88.261 43.1803 88.2674 45.1062 88.3008 47.0312L92.6719 47.0342L92.6914 41.2559C91.2211 41.2402 89.7506 41.24 88.2803 41.2549ZM75.5918 41.2656L75.5898 46.9316L79.9736 46.9375L79.9824 41.2637C78.519 41.2476 77.0552 41.2483 75.5918 41.2656ZM75.5635 30.6191L75.5576 36.459C77.0197 36.4489 78.4813 36.4469 79.9434 36.4541L79.9453 30.6152C78.4851 30.6064 77.0241 30.6075 75.5635 30.6191ZM88.2822 36.4375C89.7456 36.4101 91.2091 36.3978 92.6729 36.3994C92.7348 34.5717 92.7038 32.5014 92.6953 30.6572L88.2959 30.6494L88.2822 36.4375ZM88.291 20.0703C88.2721 22.0537 88.2712 24.0371 88.2881 26.0205L92.6406 26.0137L92.6553 20.0537C91.2007 20.0445 89.7456 20.0502 88.291 20.0703ZM79.9629 20.0215C78.4911 20.0187 77.0193 20.0294 75.5479 20.0527C75.5334 21.9891 75.5315 23.9259 75.542 25.8623C77.0183 25.8518 78.4948 25.8573 79.9707 25.8799L79.9629 20.0215Z" fill="#003075"/>
<path opacity="0.6" d="M107.053 55.4757C110.14 55.2801 113.148 55.7776 116.078 56.7126C121.001 58.2832 124.227 61.9535 127.746 65.5003C130.129 67.902 132.627 70.2514 134.898 72.7508L54.3933 72.7001L38.8408 72.711C47.232 64.3226 53.901 54.5045 66.7881 55.5989C76.2077 56.3991 80.8996 61.7317 86.7317 68.4534C86.7265 68.4554 91.156 63.9072 91.5323 63.5071C96.2608 58.4808 100.12 56.1994 107.053 55.4757Z" fill="#003075"/>
<path opacity="0.6" d="M23.3117 55.6684C24.1823 55.5348 25.8937 55.4784 26.7865 55.5147C36.1014 55.8918 39.2554 59.3146 45.2035 65.5183C43.2421 67.2953 39.3041 71.5738 37.7822 72.6923L22.5188 72.6928L0 72.7016C2.613 70.2536 5.55523 67.2723 8.0829 64.7201C13.1016 59.6519 15.9827 56.7201 23.3117 55.6684Z" fill="#003075"/>
<path opacity="0.6" d="M118.659 28.2148C119.471 28.8339 120.329 30.3722 121.719 31.0569C125.962 33.145 127.551 29.3523 129.617 28.8013L129.874 29.0673C129.902 29.7246 129.739 30.2402 129.245 30.6894C125.699 33.9085 121.821 33.4497 118.706 30.0913C116.318 32.4765 112.926 34.0184 109.77 32.0373C108.877 31.4766 107.027 30.0261 106.762 29.0335L107.026 28.7518C109.838 28.4129 110.425 35.9959 118.659 28.2148Z" fill="#003075"/>
<path opacity="0.6" d="M14.4824 43.1486C14.796 42.7513 15.3925 42.4752 15.6617 42.9413C17.7909 46.6482 21.6291 47.0004 24.7831 44.2804C25.252 43.8759 25.7769 42.868 26.034 42.9385C28.3862 43.58 23.745 46.6797 23.023 46.9972C21.6621 47.5961 19.5756 47.5736 18.193 46.928C16.7634 46.4965 15.3953 44.4965 14.9006 44.3565C14.7549 43.954 14.6519 43.5414 14.4824 43.1486Z" fill="#003075"/>
<path opacity="0.6" d="M14.9005 44.3552C12.4464 47.5602 9.39152 48.3117 5.79039 46.2243C2.92382 44.5624 3.05865 41.6476 4.75597 43.4858C8.75396 47.815 10.8268 46.3833 14.4823 43.1473C14.6517 43.5401 14.7548 43.9527 14.9005 44.3552Z" fill="#003075"/>
</svg>
