<svg width="98" height="93" viewBox="0 0 98 93" fill="none" xmlns="http://www.w3.org/2000/svg">
<g opacity="0.6">
<path d="M9.36229 0.112362C18.5033 -0.0840698 28.0786 0.033275 37.2373 0.0498621L78.6406 0.0732996C78.6339 2.90788 78.9148 10.7603 78.626 13.1221C76.9963 13.6947 73.1283 15.1979 71.7314 16.1485C70.7993 16.7067 66.3226 16.5099 64.9258 16.5137L52.04 16.5264C38.039 16.4603 24.0377 16.4653 10.0371 16.5411C10.0228 19.7756 9.81843 54.3181 10.2314 55.3428C11.9445 55.8367 12.13 51.754 16.2041 55.2774L16.8457 55.2383C19.6992 55.0481 19.6253 55.2673 21.1787 57.5674C24.6667 58.5794 24.6433 58.8516 24.7734 62.4551C27.4748 64.7827 27.5789 65.0907 26.1084 68.3516C27.4865 71.5305 27.3253 71.6758 24.7461 73.9688L24.6826 74.3458C24.2848 76.6726 24.1977 77.1783 22.2637 78.5469C23.6432 82.5429 24.5394 87.1536 25.9287 90.8878C24.0191 89.8921 22.1157 88.8841 20.2187 87.8653C18.6523 89.4595 17.6447 91.1347 16.4551 93.0001C15.4822 89.9298 14.6009 86.5705 13.7265 83.4522C12.3382 86.5658 11.0846 89.7382 9.96776 92.959C9.14808 91.4258 7.64685 89.2943 6.6533 87.793L0.315412 90.6934C1.89288 87.1209 3.23856 82.394 4.52049 78.6202C2.27911 77.6022 2.66037 76.2639 2.38377 74.0684C-0.572009 71.6961 -0.413425 71.6047 0.931623 68.0255C-0.610481 64.8179 -0.279689 64.5827 2.23533 62.1055C2.33427 58.6066 2.49924 58.3683 5.91014 57.6231C6.96626 56.0862 7.32045 54.8681 9.26658 54.7852C9.49468 53.5037 9.39329 50.5263 9.39158 49.0772L9.37987 38.7794L9.36229 0.112362ZM22.7451 65.4366C21.6118 60.3174 16.5403 57.0887 11.4228 58.2286C6.31575 59.3669 3.09575 64.4264 4.22654 69.5352C5.3569 74.6439 10.4111 77.8715 15.5215 76.7481C20.642 75.6224 23.878 70.5554 22.7451 65.4366Z" fill="#003075"/>
<path d="M5.27128 78.7246C7.2609 78.8256 7.12997 78.6939 8.28855 80.34C9.28673 81.7587 11.4885 80.9744 12.8092 80.7336C13.0723 80.6856 13.5716 82.2323 13.4832 82.5047C13.362 82.8621 13.0395 83.2579 12.866 83.6305C11.8451 85.8276 10.929 88.112 10.2133 90.4262C10.1557 90.6135 10.0142 91.4614 9.56333 90.9676C9.4846 90.8602 9.4063 90.7529 9.32757 90.6455C8.53947 89.3261 7.78336 88.1557 6.96706 86.862C5.17362 87.6333 3.51235 88.45 1.73828 89.252C2.79414 85.8609 3.98935 82.0387 5.27128 78.7246Z" fill="#003075"/>
<path d="M20.0293 78.502C21.2649 78.6274 21.5057 78.4969 21.9414 79.8083C23.0183 83.0487 23.9534 86.2575 24.7276 89.5834C23.0284 88.5713 21.5128 87.7904 19.7312 86.9421C19.1734 87.7398 18.6059 88.4997 18.0523 89.2845C17.6165 89.9315 17.1859 90.582 16.7602 91.2354C15.7604 87.7045 14.6447 84.1222 13.6104 80.5863C17.8262 83.042 17.4267 81.3904 20.0293 78.502Z" fill="#003075"/>
<path d="M80.3009 15.3633C81.987 15.5073 94.8606 22.1278 97.5577 23.3379C97.6718 38.6293 95.041 49.1073 80.5988 56.2734C78.6174 56.1404 73.0181 51.9826 71.5353 50.4297C63.9027 42.4342 63.2513 33.5412 63.2618 23.2744C68.8386 20.501 74.5145 18.3312 80.3009 15.3633ZM88.1437 28.5977C86.0402 30.3505 80.3892 37.7528 78.6046 40.1221C78.0161 39.5037 77.3212 38.8001 76.3497 37.6396C75.1853 36.2496 73.5286 34.8331 72.7501 37.708C72.6269 38.1644 74.1905 39.7761 74.6456 40.3311C76.1243 41.9769 76.8899 43.0082 78.6134 44.4717C80.1899 42.9831 89.6937 31.682 89.7433 30.2432C89.7563 29.85 89.6484 29.3589 89.3693 29.0654C89.0447 28.7241 88.5832 28.6751 88.1437 28.5977Z" fill="#003075"/>
<path d="M78.1391 58.375L78.6051 58.6659C78.8859 59.7879 78.6477 72.9549 78.6304 74.8115C76.9422 76.9051 75.1829 78.408 73.3414 80.2857C69.9823 83.7113 66.1167 87.1963 62.9382 90.7474C51.8269 90.2953 39.3267 90.6337 28.047 90.5428C27.6959 90.502 27.8963 90.5546 27.4736 90.3028L27.685 90.0456C28.9896 89.8128 36.3882 89.9391 38.0536 89.9425L62.4579 89.9989C62.7698 85.727 62.6031 78.7234 62.6073 74.3063L78.0057 74.3244C78.0414 71.164 77.7253 60.8606 78.1391 58.375Z" fill="#003075"/>
<path d="M63.2561 74.9434L77.6036 74.972C75.3724 77.4491 72.7382 79.89 70.3562 82.2522C68.1426 84.4835 65.4971 87.2739 63.2397 89.3708C63.2153 84.5618 63.2203 79.7524 63.2561 74.9434Z" fill="#003075"/>
<path d="M17.3047 50.1861C25.661 49.8691 34.2674 50.3002 42.6507 50.1432C46.5483 50.0703 50.6555 50.0867 54.5425 50.1827C55.0873 50.5827 54.8596 50.3229 55.0389 51.1691C45.4785 51.4474 35.7405 51.0811 26.1666 51.2041C24.779 51.2217 18.1913 51.3278 17.4546 50.8849L17.3047 50.1861Z" fill="#003075"/>
<path d="M17.5898 28.3093C20.5823 28.0516 53.803 27.9678 54.5595 28.3981C54.8045 28.537 54.8096 28.9656 54.8719 29.2211C51.6003 29.3689 18.5207 29.5209 17.6492 29.0115L17.5898 28.3093Z" fill="#003075"/>
<path d="M19.2681 39.0732L45.0027 39.1224C47.0226 39.1237 53.2458 38.8677 54.7829 39.2172L54.8679 39.6121C54.3703 40.1509 54.5896 39.9872 53.6222 40.0385C49.4867 40.068 19.2984 40.4608 17.6494 39.724L17.5791 39.4373C18.2304 38.9949 18.3428 39.1389 19.2681 39.0732Z" fill="#003075"/>
</g>
</svg>
