<svg width="11" height="26" viewBox="0 0 11 26" fill="none" xmlns="http://www.w3.org/2000/svg">
<path d="M5.48244 25.992C4.0074 25.992 2.49724 25.992 1.0222 25.992C0.635885 25.992 0.144206 26.0901 0.0388461 25.5998C-0.101634 25.1094 0.214445 24.7826 0.741245 24.6845C2.2514 24.3576 2.70796 23.3443 2.74308 22.0695C2.91868 15.9897 2.98892 9.94257 2.74308 3.86274C2.67284 2.58794 2.21628 1.6727 0.741245 1.47658C0.179325 1.4112 -0.0313947 1.08433 0.00372531 0.594019C0.0739652 -0.0270378 0.565645 0.0383356 1.0222 0.00564842C4.0074 0.00564842 6.95748 0.00564842 9.94267 0.00564842C10.3641 0.00564842 10.926 -0.0924137 10.9963 0.528644C11.0314 1.01895 10.8207 1.34583 10.2588 1.4112C8.60812 1.64001 8.15156 2.75138 8.11644 4.05887C8.11644 9.90988 8.08132 15.7609 8.11644 21.6119C8.11644 22.9521 8.3974 24.3249 10.2588 24.5864C10.7856 24.6518 11.0665 25.0441 10.926 25.5344C10.8207 26.0247 10.329 25.9266 9.94267 25.9266C8.46764 25.9266 6.95748 25.9266 5.48244 25.9266V25.992Z" fill="white"/>
</svg>
