<svg width="33" height="27" viewBox="0 0 33 27" fill="none" xmlns="http://www.w3.org/2000/svg">
<path d="M6.3355 5.23087C6.3355 7.30731 6.23902 9.28328 6.07822 11.2592C5.82094 14.9098 5.72446 18.5603 5.62799 22.2108C5.59583 23.6174 5.72446 25.024 7.55758 25.225C8.03998 25.292 8.2651 25.6938 8.16862 26.1962C8.07214 26.6986 7.65406 26.6316 7.26814 26.6316C5.11343 26.6316 2.95871 26.6316 0.803998 26.6316C0.418079 26.6316 0.0321599 26.6316 0 26.0957C0 25.6604 0.1608 25.3255 0.578878 25.2585C2.34767 24.8901 2.66927 23.5504 2.76575 21.9764C3.08735 16.2494 3.44111 10.5559 3.76271 4.82897C3.85919 3.22141 3.76271 1.68083 1.70448 1.44639C1.25424 1.37941 0.964797 0.977523 1.02912 0.508649C1.09344 0.00628459 1.54368 0.0397776 1.89743 0.0397776C4.37375 0.0397776 6.8179 0.0397776 9.29421 0.0397776C10.0982 0.0397776 10.2912 0.542137 10.5163 1.21196C12.2851 6.50353 14.086 11.7951 15.9192 17.0532C16.08 17.5555 16.3051 18.0579 16.6267 18.9287C17.6236 16.1154 18.5241 13.6036 19.3924 11.1253C20.518 7.91015 21.6436 4.66153 22.7049 1.41291C23.0265 0.408178 23.5089 -0.0607024 24.6345 0.00627948C26.4033 0.106752 28.2042 0.00628664 29.973 0.0397776C30.3911 0.0397776 30.9057 -0.0272063 31.0343 0.508649C31.1308 1.078 30.777 1.4129 30.2303 1.51338C28.8796 1.74781 28.6223 2.78603 28.6866 3.95821C29.0726 10.2545 29.5228 16.5843 29.9087 22.8806C30.0052 24.1868 30.4876 25.024 31.8383 25.225C32.3207 25.292 33.0604 25.3924 32.9961 26.0957C32.9318 27.0335 32.1278 26.6316 31.6132 26.6651C29.0404 26.6986 26.4676 26.6986 23.8948 26.6651C23.4446 26.6651 22.7371 26.9665 22.6406 26.1292C22.5763 25.4929 23.0265 25.3254 23.5089 25.1915C24.6345 24.8566 24.8596 23.9523 24.8275 22.8806C24.6667 18.5268 24.4737 14.173 24.3129 9.78565C24.2807 8.68045 24.3129 7.54175 24.0878 6.40305C23.0265 7.50825 22.7692 8.98186 22.2868 10.288C20.3894 15.3451 18.5563 20.4693 16.691 25.5599C16.4337 26.2632 16.2408 26.9665 15.2438 27C14.2468 27 14.0539 26.3302 13.7966 25.5934C11.4811 19.0626 9.16558 12.5319 6.8179 6.00116C6.72142 5.76673 6.75358 5.46531 6.23902 5.29786L6.3355 5.23087Z" fill="white"/>
</svg>
