<svg width="27" height="27" viewBox="0 0 27 27" fill="none" xmlns="http://www.w3.org/2000/svg">
<path d="M5.93248 6.6825C5.93248 12.2285 5.89992 17.4405 5.93248 22.619C5.93248 23.9554 6.55115 25.0245 8.08156 25.225C8.53743 25.2918 9.09099 25.3921 9.05842 26.0603C9.02586 26.8287 8.40719 26.5948 7.95132 26.5948C5.67199 26.5948 3.39265 26.5948 1.11332 26.5948C0.690021 26.5948 0.169038 26.7285 0.0387902 26.1939C-0.124019 25.5591 0.396971 25.3252 0.852836 25.1916C2.64374 24.7239 3.0996 23.3875 3.0996 21.717C3.0996 15.937 3.0996 10.1571 3.0996 4.41062C3.0996 2.87377 2.54605 1.77124 0.917962 1.50396C0.396972 1.43714 -0.0589023 1.20327 0.00622137 0.601895C0.0713451 -0.133123 0.657459 0.0673424 1.11332 0.0339325C1.17845 0.0339325 1.21102 0.0339325 1.27614 0.0339325C7.10472 -0.0997072 7.07215 -0.0663064 10.6865 4.64449C14.2032 9.22165 17.7524 13.732 21.3017 18.2757C21.8227 17.9416 21.5622 17.4739 21.5622 17.073C21.5622 12.9302 21.5622 8.78732 21.4645 4.64449C21.4645 3.07423 21.0412 1.70442 19.1526 1.50396C18.6316 1.43714 18.4362 1.06964 18.5014 0.568491C18.5665 0.0673419 18.9572 0.0339325 19.348 0.0339325C21.6273 0.0339325 23.9066 0.0339325 26.186 0.0339325C26.5441 0.0339325 26.9674 0.0339264 27 0.601895C27 1.03622 26.8698 1.37032 26.4465 1.43714C24.7858 1.77124 24.4276 3.00741 24.3625 4.47745C24.0369 10.0235 24.2974 15.5695 24.1997 21.149C24.1997 22.452 24.2322 23.755 24.1997 25.058C24.1997 25.6927 24.623 26.6282 23.6787 26.8955C22.767 27.1628 21.9529 26.9289 21.3017 26.0603C19.0223 23.1202 16.6779 20.2135 14.3986 17.3069C11.6634 13.8322 8.92817 10.391 5.96505 6.6491L5.93248 6.6825Z" fill="white"/>
</svg>
