<svg width="29" height="28" viewBox="0 0 29 28" fill="none" xmlns="http://www.w3.org/2000/svg">
<path d="M14.3998 27.9653C6.31482 28.031 -0.066298 21.886 0.000519972 14.1307C0.067338 6.83557 6.28141 -0.0652565 14.8341 0.000465708C21.9502 0.0333268 29.0663 5.81689 28.9995 13.7693C28.9327 21.3602 22.9191 28.1296 14.3664 27.9981L14.3998 27.9653ZM23.5873 15.1166C23.3868 11.6662 22.8189 8.4129 20.6473 5.68543C17.1059 1.1506 10.5244 1.31491 7.48414 6.24408C4.51074 11.0418 5.07868 16.0695 7.38391 20.9658C8.88731 24.1205 11.56 25.6978 15.1014 25.5664C18.5425 25.4678 20.8477 23.5947 22.3177 20.6372C23.1864 18.8627 23.3868 16.9568 23.5873 15.1494V15.1166Z" fill="white"/>
</svg>
