<svg width="38" height="34" viewBox="0 0 38 34" fill="none" xmlns="http://www.w3.org/2000/svg">
<path d="M37.6155 14.2434H35.4446C34.2897 6.19349 27.3853 0 19.0161 0C12.5485 0 6.95796 3.7033 4.21137 9.09676L8.66955 10.8107C10.7028 7.19528 14.571 4.74775 19.0162 4.74775C24.7586 4.74775 29.5479 8.82613 30.647 14.2433H27.7865C27.4198 14.5994 27.0684 14.8202 27.5942 15.4374L32.0227 19.9407C32.3894 20.2968 32.9841 20.2968 33.3509 19.9407L37.8091 15.4374C38.1746 15.0814 37.9823 14.6006 37.6155 14.2434ZM19.0161 28.4868C13.7022 28.4868 9.20485 24.9936 7.69148 20.1781H10.2885C10.6553 19.822 10.8476 19.3401 10.4808 18.984L6.02386 14.4807C5.6571 14.1246 5.06244 14.1246 4.69568 14.4807L0.267121 18.984C-0.258737 19.6012 0.0926213 19.822 0.459381 20.1781H2.63628C3.9241 27.2191 10.7562 33.2345 19.0173 33.2345C25.0624 33.2345 30.3372 29.9954 33.2452 25.1692L28.7526 23.396C26.6066 26.4714 23.0493 28.4868 19.0161 28.4868Z" fill="#FFFFFE"/>
</svg>
