<svg width="60" height="60" viewBox="0 0 60 60" fill="none" xmlns="http://www.w3.org/2000/svg">
<path fill-rule="evenodd" clip-rule="evenodd" d="M52.4803 17.4075C52.4753 17.2275 52.4228 17.0575 52.3753 16.885C52.3378 16.74 52.3203 16.5925 52.2578 16.46C52.2003 16.33 52.1028 16.225 52.0178 16.105C51.9128 15.9525 51.8178 15.8 51.6828 15.675C51.6603 15.6525 51.6503 15.6225 51.6253 15.6025C51.5353 15.525 51.4253 15.4975 51.3278 15.435C51.1778 15.3375 51.0303 15.2375 50.8603 15.1725C50.6928 15.1125 50.5278 15.0975 50.3553 15.0725C50.2353 15.055 50.1278 15 50.0003 15H37.5003C36.1178 15 35.0003 16.12 35.0003 17.5C35.0003 18.88 36.1178 20 37.5003 20H44.5653L34.4753 31.77L23.7853 25.3575C22.7278 24.7175 21.3678 24.9525 20.5778 25.9L8.07776 40.9C7.19526 41.96 7.33776 43.5375 8.39776 44.42C8.86776 44.81 9.43276 45 9.99776 45C10.7153 45 11.4253 44.695 11.9203 44.1L23.0503 30.745L33.7128 37.145C34.7603 37.7725 36.1053 37.5525 36.8978 36.6275L47.5003 24.2575V30C47.5003 31.38 48.6178 32.5 50.0003 32.5C51.3828 32.5 52.5003 31.38 52.5003 30V17.5C52.5003 17.4675 52.4828 17.44 52.4803 17.4075" fill="#292726"/>
<mask id="mask0_188_916" style="mask-type:luminance" maskUnits="userSpaceOnUse" x="7" y="15" width="46" height="30">
<path fill-rule="evenodd" clip-rule="evenodd" d="M52.4803 17.4075C52.4753 17.2275 52.4228 17.0575 52.3753 16.885C52.3378 16.74 52.3203 16.5925 52.2578 16.46C52.2003 16.33 52.1028 16.225 52.0178 16.105C51.9128 15.9525 51.8178 15.8 51.6828 15.675C51.6603 15.6525 51.6503 15.6225 51.6253 15.6025C51.5353 15.525 51.4253 15.4975 51.3278 15.435C51.1778 15.3375 51.0303 15.2375 50.8603 15.1725C50.6928 15.1125 50.5278 15.0975 50.3553 15.0725C50.2353 15.055 50.1278 15 50.0003 15H37.5003C36.1178 15 35.0003 16.12 35.0003 17.5C35.0003 18.88 36.1178 20 37.5003 20H44.5653L34.4753 31.77L23.7853 25.3575C22.7278 24.7175 21.3678 24.9525 20.5778 25.9L8.07776 40.9C7.19526 41.96 7.33776 43.5375 8.39776 44.42C8.86776 44.81 9.43276 45 9.99776 45C10.7153 45 11.4253 44.695 11.9203 44.1L23.0503 30.745L33.7128 37.145C34.7603 37.7725 36.1053 37.5525 36.8978 36.6275L47.5003 24.2575V30C47.5003 31.38 48.6178 32.5 50.0003 32.5C51.3828 32.5 52.5003 31.38 52.5003 30V17.5C52.5003 17.4675 52.4828 17.44 52.4803 17.4075" fill="white"/>
</mask>
<g mask="url(#mask0_188_916)">
<rect width="60" height="60" fill="#003075"/>
</g>
</svg>
